<?xml version="1.0" encoding="UTF-8"?>
<!DOCTYPE svg PUBLIC "-//W3C//DTD SVG 1.1//EN" "http://www.w3.org/Graphics/SVG/1.1/DTD/svg11.dtd">
<svg xmlns="http://www.w3.org/2000/svg" version="1.1" width="512px" height="512px" style="shape-rendering:geometricPrecision; text-rendering:geometricPrecision; image-rendering:optimizeQuality; fill-rule:evenodd; clip-rule:evenodd" xmlns:xlink="http://www.w3.org/1999/xlink">
<g><path style="opacity:0.992" fill="#fefffe" d="M 88.5,23.5 C 105.503,23.3334 122.503,23.5001 139.5,24C 142.516,25.5286 143.849,28.0286 143.5,31.5C 143.849,34.9714 142.516,37.4714 139.5,39C 124.833,39.3333 110.167,39.6667 95.5,40C 91,40.5 88.5,43 88,47.5C 87.3333,122.167 87.3333,196.833 88,271.5C 88.5,276 91,278.5 95.5,279C 202.167,279.667 308.833,279.667 415.5,279C 420,278.5 422.5,276 423,271.5C 423.667,196.833 423.667,122.167 423,47.5C 422.5,43 420,40.5 415.5,40C 347.5,39.6667 279.5,39.3333 211.5,39C 208.484,37.4714 207.151,34.9714 207.5,31.5C 207.151,28.0286 208.484,25.5286 211.5,24C 281.833,23.3333 352.167,23.3333 422.5,24C 430.667,26.8333 436.167,32.3333 439,40.5C 439.667,119.833 439.667,199.167 439,278.5C 436.167,286.667 430.667,292.167 422.5,295C 311.167,295.667 199.833,295.667 88.5,295C 80.3333,292.167 74.8333,286.667 72,278.5C 71.3333,199.167 71.3333,119.833 72,40.5C 75.0191,32.3156 80.5191,26.649 88.5,23.5 Z M 223.5,79.5 C 276.834,79.3333 330.168,79.5 383.5,80C 390.347,81.8656 392.18,86.0323 389,92.5C 387.352,93.717 385.519,94.5503 383.5,95C 330.167,95.6667 276.833,95.6667 223.5,95C 216.653,93.1344 214.82,88.9677 218,82.5C 219.876,81.3913 221.709,80.3913 223.5,79.5 Z M 167.5,183.5 C 172.844,183.334 178.177,183.501 183.5,184C 188,184.5 190.5,187 191,191.5C 191.5,199.493 191.666,207.493 191.5,215.5C 180.833,215.5 170.167,215.5 159.5,215.5C 159.334,207.493 159.5,199.493 160,191.5C 160.68,186.989 163.18,184.323 167.5,183.5 Z M 239.5,183.5 C 247.507,183.334 255.507,183.5 263.5,184C 268,184.5 270.5,187 271,191.5C 271.667,202.167 271.667,212.833 271,223.5C 270.5,228 268,230.5 263.5,231C 255.507,231.5 247.507,231.666 239.5,231.5C 239.5,215.5 239.5,199.5 239.5,183.5 Z"/></g>
<g><path style="opacity:0.95" fill="#fefffe" d="M 163.5,23.5 C 171.507,23.3336 179.507,23.5003 187.5,24C 189.333,24.5 190.5,25.6667 191,27.5C 191.667,30.1667 191.667,32.8333 191,35.5C 190.5,37.3333 189.333,38.5 187.5,39C 179.5,39.6667 171.5,39.6667 163.5,39C 160.484,37.4714 159.151,34.9714 159.5,31.5C 159.282,27.9342 160.616,25.2675 163.5,23.5 Z"/></g>
<g><path style="opacity:0.984" fill="#fefffe" d="M 216.5,63.5 C 274.501,63.3333 332.501,63.5 390.5,64C 404.482,69.4572 409.982,79.6239 407,94.5C 404.167,102.667 398.667,108.167 390.5,111C 332.5,111.667 274.5,111.667 216.5,111C 202.518,105.543 197.018,95.3761 200,80.5C 203.019,72.3156 208.519,66.649 216.5,63.5 Z M 223.5,79.5 C 221.709,80.3913 219.876,81.3913 218,82.5C 214.82,88.9677 216.653,93.1344 223.5,95C 276.833,95.6667 330.167,95.6667 383.5,95C 385.519,94.5503 387.352,93.717 389,92.5C 392.18,86.0323 390.347,81.8656 383.5,80C 330.168,79.5 276.834,79.3333 223.5,79.5 Z"/></g>
<g><path style="opacity:0.937" fill="#fefffe" d="M 113.5,71.5 C 132.778,70.6097 139.278,79.2764 133,97.5C 126.055,104.069 118.222,105.236 109.5,101C 102.931,94.0554 101.764,86.2221 106,77.5C 108.114,74.8792 110.614,72.8792 113.5,71.5 Z"/></g>
<g><path style="opacity:0.937" fill="#fefffe" d="M 161.5,71.5 C 180.778,70.6097 187.278,79.2764 181,97.5C 174.055,104.069 166.222,105.236 157.5,101C 150.931,94.0554 149.764,86.2221 154,77.5C 156.114,74.8792 158.614,72.8792 161.5,71.5 Z"/></g>
<g><path style="opacity:0.984" fill="#fefffe" d="M 42.5,88.5 C 54.5298,87.0702 58.1964,91.9035 53.5,103C 40.9494,106.545 33.7827,114.711 32,127.5C 31.3333,196.833 31.3333,266.167 32,335.5C 33.5,349.667 41.3333,357.5 55.5,359C 188.833,359.667 322.167,359.667 455.5,359C 469.333,357.167 477.167,349.333 479,335.5C 479.667,266.167 479.667,196.833 479,127.5C 477.217,114.711 470.051,106.545 457.5,103C 455.058,98.9476 454.891,94.7809 457,90.5C 462.519,87.8491 468.019,88.0158 473.5,91C 484.858,96.879 492.025,106.046 495,118.5C 495.667,193.833 495.667,269.167 495,344.5C 490.833,360.667 480.667,370.833 464.5,375C 325.167,375.667 185.833,375.667 46.5,375C 30.3333,370.833 20.1667,360.667 16,344.5C 15.3333,269.167 15.3333,193.833 16,118.5C 19.7519,103.92 28.5853,93.92 42.5,88.5 Z M 167.5,183.5 C 163.18,184.323 160.68,186.989 160,191.5C 159.5,199.493 159.334,207.493 159.5,215.5C 170.167,215.5 180.833,215.5 191.5,215.5C 191.666,207.493 191.5,199.493 191,191.5C 190.5,187 188,184.5 183.5,184C 178.177,183.501 172.844,183.334 167.5,183.5 Z M 239.5,183.5 C 239.5,199.5 239.5,215.5 239.5,231.5C 247.507,231.666 255.507,231.5 263.5,231C 268,230.5 270.5,228 271,223.5C 271.667,212.833 271.667,202.167 271,191.5C 270.5,187 268,184.5 263.5,184C 255.507,183.5 247.507,183.334 239.5,183.5 Z"/></g>
<g><path style="opacity:0.976" fill="#fefffe" d="M 160.5,167.5 C 170.506,167.334 180.506,167.5 190.5,168C 197.519,170.351 202.686,174.851 206,181.5C 207.632,202.102 207.965,222.769 207,243.5C 206.5,245.333 205.333,246.5 203.5,247C 200.036,247.817 196.702,247.483 193.5,246C 192.874,245.25 192.374,244.416 192,243.5C 191.501,239.514 191.334,235.514 191.5,231.5C 180.833,231.5 170.167,231.5 159.5,231.5C 159.666,235.514 159.499,239.514 159,243.5C 157.471,246.516 154.971,247.849 151.5,247.5C 149.074,247.596 146.907,246.93 145,245.5C 143.856,235.094 143.356,224.594 143.5,214C 143.367,203.098 143.867,192.265 145,181.5C 148.492,174.834 153.659,170.168 160.5,167.5 Z M 167.5,183.5 C 163.18,184.323 160.68,186.989 160,191.5C 159.5,199.493 159.334,207.493 159.5,215.5C 170.167,215.5 180.833,215.5 191.5,215.5C 191.666,207.493 191.5,199.493 191,191.5C 190.5,187 188,184.5 183.5,184C 178.177,183.501 172.844,183.334 167.5,183.5 Z"/></g>
<g><path style="opacity:0.98" fill="#fefffe" d="M 227.5,167.5 C 241.837,167.333 256.171,167.5 270.5,168C 278.667,170.833 284.167,176.333 287,184.5C 287.667,199.833 287.667,215.167 287,230.5C 284.167,238.667 278.667,244.167 270.5,247C 256.167,247.667 241.833,247.667 227.5,247C 226.584,246.626 225.75,246.126 225,245.5C 223.353,220.921 223.02,196.254 224,171.5C 224.69,169.65 225.856,168.316 227.5,167.5 Z M 239.5,183.5 C 239.5,199.5 239.5,215.5 239.5,231.5C 247.507,231.666 255.507,231.5 263.5,231C 268,230.5 270.5,228 271,223.5C 271.667,212.833 271.667,202.167 271,191.5C 270.5,187 268,184.5 263.5,184C 255.507,183.5 247.507,183.334 239.5,183.5 Z"/></g>
<g><path style="opacity:0.958" fill="#fefffe" d="M 320.5,167.5 C 334.837,167.333 349.171,167.5 363.5,168C 365.333,168.5 366.5,169.667 367,171.5C 367.667,174.167 367.667,176.833 367,179.5C 366.5,181.333 365.333,182.5 363.5,183C 351.5,183.333 339.5,183.667 327.5,184C 321.659,185.176 319.493,188.676 321,194.5C 321.5,196.333 322.667,197.5 324.5,198C 333.091,199.244 341.758,199.911 350.5,200C 364.482,205.457 369.982,215.624 367,230.5C 364.649,237.519 360.149,242.686 353.5,246C 338.235,247.619 322.901,247.952 307.5,247C 305.667,246.5 304.5,245.333 304,243.5C 303.333,240.833 303.333,238.167 304,235.5C 304.5,233.667 305.667,232.5 307.5,232C 319.5,231.667 331.5,231.333 343.5,231C 349.341,229.824 351.507,226.324 350,220.5C 349.5,218.667 348.333,217.5 346.5,217C 337.909,215.756 329.242,215.089 320.5,215C 305.242,208.644 300.075,197.477 305,181.5C 308.492,174.834 313.659,170.168 320.5,167.5 Z"/></g>
<g><path style="opacity:0.994" fill="#fefffe" d="M 139.5,319.5 C 216.834,319.333 294.167,319.5 371.5,320C 374.516,321.529 375.849,324.029 375.5,327.5C 375.849,330.971 374.516,333.471 371.5,335C 294.167,335.667 216.833,335.667 139.5,335C 136.484,333.471 135.151,330.971 135.5,327.5C 135.282,323.934 136.616,321.268 139.5,319.5 Z"/></g>
<g><path style="opacity:0.983" fill="#fefffe" d="M 191.5,390.5 C 198.465,390.3 201.798,393.633 201.5,400.5C 199.404,413.482 196.737,426.315 193.5,439C 234.837,439.833 276.171,439.667 317.5,438.5C 314.643,425.715 311.976,412.882 309.5,400C 310.591,391.976 314.924,389.309 322.5,392C 323.667,393.167 324.833,394.333 326,395.5C 329.028,410.141 331.862,424.807 334.5,439.5C 363.835,439.333 393.169,439.5 422.5,440C 436.482,445.457 441.982,455.624 439,470.5C 436.167,478.667 430.667,484.167 422.5,487C 310.111,487.994 197.777,487.661 85.5,486C 72.5012,478.683 68.3346,467.849 73,453.5C 76.3141,446.851 81.4808,442.351 88.5,440C 117.839,439.833 147.172,439.333 176.5,438.5C 179.651,424.576 182.485,410.576 185,396.5C 186.436,393.558 188.603,391.558 191.5,390.5 Z M 95.5,455.5 C 202.167,455.333 308.834,455.5 415.5,456C 422.347,457.866 424.18,462.032 421,468.5C 419.352,469.717 417.519,470.55 415.5,471C 308.833,471.667 202.167,471.667 95.5,471C 88.6531,469.134 86.8197,464.968 90,458.5C 91.8761,457.391 93.7095,456.391 95.5,455.5 Z"/></g>
</svg>
