<?xml version="1.0" encoding="UTF-8"?>
<!DOCTYPE svg PUBLIC "-//W3C//DTD SVG 1.1//EN" "http://www.w3.org/Graphics/SVG/1.1/DTD/svg11.dtd">
<svg xmlns="http://www.w3.org/2000/svg" version="1.1" width="512px" height="512px" style="shape-rendering:geometricPrecision; text-rendering:geometricPrecision; image-rendering:optimizeQuality; fill-rule:evenodd; clip-rule:evenodd" xmlns:xlink="http://www.w3.org/1999/xlink">
<g><path style="opacity:0.933" fill="#fefffe" d="M 220.5,29.5 C 234.299,30.2338 245.966,35.5671 255.5,45.5C 277.347,25.1088 300.014,24.2755 323.5,43C 328.442,47.714 332.275,53.214 335,59.5C 335.903,60.7014 337.069,61.5348 338.5,62C 345.129,60.5759 351.796,58.9092 358.5,57C 385.522,54.9221 404.022,66.4221 414,91.5C 416.272,100.11 417.105,108.776 416.5,117.5C 439.746,121.588 455.579,134.588 464,156.5C 467.556,171.602 465.056,185.602 456.5,198.5C 462.072,203.569 467.572,208.903 473,214.5C 486.032,234.05 486.698,254.05 475,274.5C 472.354,277.98 469.521,281.314 466.5,284.5C 487.755,307.889 488.922,332.222 470,357.5C 461.568,365.717 451.568,371.05 440,373.5C 444.806,395.412 438.973,413.912 422.5,429C 413.503,435.327 403.503,439.16 392.5,440.5C 378.594,469.365 356.261,479.031 325.5,469.5C 320.362,472.571 315.029,475.404 309.5,478C 288.564,484.766 270.564,480.266 255.5,464.5C 241.924,479.234 225.257,484.068 205.5,479C 198.465,476.732 191.965,473.565 186,469.5C 163.473,477.663 143.806,473.33 127,456.5C 122.805,451.448 119.639,445.781 117.5,439.5C 87.8515,435.187 71.5181,418.187 68.5,388.5C 69.0593,382.813 69.726,377.146 70.5,371.5C 47.346,367.18 33.1793,353.513 28,330.5C 25.9193,316.824 28.5859,304.158 36,292.5C 38.6255,289.406 41.1255,286.24 43.5,283C 25.2092,262.666 22.7092,240.499 36,216.5C 40.7086,210.124 46.3753,204.791 53,200.5C 53.1667,199.833 53.3333,199.167 53.5,198.5C 36.7592,164.813 45.0926,139.313 78.5,122C 84.1636,120.383 89.6636,118.549 95,116.5C 93.6528,81.025 110.486,61.025 145.5,56.5C 155.053,57.7269 164.387,59.5602 173.5,62C 176.373,58.4228 178.873,54.5894 181,50.5C 191.052,37.5584 204.219,30.5584 220.5,29.5 Z M 220.5,46.5 C 235.741,47.5756 244.907,55.5756 248,70.5C 248.5,102.832 248.667,135.165 248.5,167.5C 234.784,168.571 221.951,172.571 210,179.5C 203.427,169.363 197.094,159.029 191,148.5C 187.95,144.87 184.117,143.703 179.5,145C 166.081,146.903 152.747,149.236 139.5,152C 135.213,157.357 135.547,162.357 140.5,167C 152.931,166.596 165.265,165.096 177.5,162.5C 178.167,162.833 178.833,163.167 179.5,163.5C 184.833,172.5 190.167,181.5 195.5,190.5C 178.971,205.892 169.638,224.892 167.5,247.5C 158.827,247.666 150.16,247.5 141.5,247C 138.479,239.79 135.313,232.623 132,225.5C 124.409,220.376 119.243,222.209 116.5,231C 119.865,242.105 124.199,252.772 129.5,263C 142.067,264.461 154.734,264.961 167.5,264.5C 167.942,277.493 171.609,289.493 178.5,300.5C 165.196,309.305 152.03,318.305 139,327.5C 138.333,330.5 138.333,333.5 139,336.5C 144.451,347.903 150.284,359.07 156.5,370C 167.979,373.188 172.146,369.021 169,357.5C 165.364,350.395 161.864,343.228 158.5,336C 168.395,328.8 178.562,321.966 189,315.5C 202.204,328.856 218.037,337.69 236.5,342C 240.44,343.015 244.44,343.515 248.5,343.5C 248.667,376.168 248.5,408.835 248,441.5C 242.751,458.387 231.251,465.554 213.5,463C 205.417,460.125 197.75,456.458 190.5,452C 187.833,451.333 185.167,451.333 182.5,452C 159.678,460.25 143.678,453.25 134.5,431C 135.998,427.673 137.998,424.673 140.5,422C 150.82,419.701 153.486,414.035 148.5,405C 134.101,403.269 124.435,409.102 119.5,422.5C 101.487,420.321 90.6534,410.321 87,392.5C 87.004,386.464 87.6707,380.464 89,374.5C 92.4453,372.206 96.1119,371.873 100,373.5C 107.467,372.246 110.134,367.912 108,360.5C 99.7403,353.491 90.9069,352.824 81.5,358.5C 69.3348,356.336 59.1681,350.669 51,341.5C 44.1868,330.975 43.1868,319.975 48,308.5C 51.5875,302.412 55.7542,296.745 60.5,291.5C 65.2968,288.429 69.6301,288.929 73.5,293C 82.6667,294.5 86.5,290.667 85,281.5C 77.4173,273.644 68.2506,270.811 57.5,273C 41.9964,257.788 40.4964,241.288 53,223.5C 58.946,219.555 64.2794,214.889 69,209.5C 76.538,205.81 83.038,206.976 88.5,213C 99.0533,214.074 102.553,209.574 99,199.5C 95.5788,195.743 91.4121,193.243 86.5,192C 80.4725,191.83 74.4725,191.33 68.5,190.5C 56.022,166.769 62.022,149.269 86.5,138C 94.2345,137.199 101.068,134.366 107,129.5C 111.123,137.367 116.456,138.367 123,132.5C 125.34,123.194 121.84,116.86 112.5,113.5C 111.271,91.8867 121.271,78.7201 142.5,74C 150.575,73.6157 158.242,75.2823 165.5,79C 172.534,78.1066 178.367,80.2733 183,85.5C 182.622,94.4569 186.788,97.9569 195.5,96C 199.921,92.9749 201.421,88.8082 200,83.5C 198.803,77.316 195.636,72.4826 190.5,69C 196.696,56.2887 206.696,48.7887 220.5,46.5 Z M 283.5,47.5 C 300.716,46.4362 313.049,53.6028 320.5,69C 311.687,75.7869 309.187,84.2869 313,94.5C 322.089,99.5784 327.089,96.9117 328,86.5C 332.729,80.5552 338.895,78.0552 346.5,79C 364.525,70.0859 380.025,73.2526 393,88.5C 398.167,96.192 399.667,104.525 397.5,113.5C 387.004,117.692 384.338,124.525 389.5,134C 395.516,136.827 400.183,135.327 403.5,129.5C 405.833,131 408.167,132.5 410.5,134C 427.325,135.984 439.492,144.484 447,159.5C 450.121,170.688 448.288,181.021 441.5,190.5C 434.554,190.044 427.554,190.544 420.5,192C 414.829,194.498 411.163,198.665 409.5,204.5C 410.737,212.063 415.071,214.563 422.5,212C 423.833,210.667 425.167,209.333 426.5,208C 431.572,207.249 436.572,207.582 441.5,209C 445.744,213.915 450.577,218.081 456,221.5C 469.809,240.153 468.309,257.486 451.5,273.5C 441.98,270.764 433.646,272.764 426.5,279.5C 423.115,287.008 425.448,291.674 433.5,293.5C 436.107,292.863 438.44,291.696 440.5,290C 443.964,289.183 447.298,289.517 450.5,291C 455.055,296.555 459.221,302.388 463,308.5C 468.705,325.717 464.205,339.55 449.5,350C 442.597,352.834 435.763,355.668 429,358.5C 425.415,355.472 421.248,354.139 416.5,354.5C 408.798,353.672 403.798,356.838 401.5,364C 401.981,367.814 403.981,370.48 407.5,372C 411.5,372 415.5,372 419.5,372C 426.966,388.476 423.966,402.809 410.5,415C 404.834,419.223 398.501,421.223 391.5,421C 385.228,408.738 375.228,403.405 361.5,405C 357.212,408.771 356.379,413.271 359,418.5C 362.442,420.853 366.275,422.02 370.5,422C 373.223,425.057 375.556,428.39 377.5,432C 368.309,453.428 352.642,460.428 330.5,453C 327.5,452.333 324.5,452.333 321.5,453C 314.392,457.106 307.059,460.772 299.5,464C 283.555,466.947 272.388,461.114 266,446.5C 265.5,412.168 265.333,377.835 265.5,343.5C 275.975,342.12 285.975,339.12 295.5,334.5C 301.709,344.418 308.042,354.252 314.5,364C 316.278,364.704 318.112,365.204 320,365.5C 335.896,361.568 351.729,357.401 367.5,353C 374.232,349.228 375.232,344.228 370.5,338C 368.801,337.042 366.967,336.542 365,336.5C 352.447,339.43 339.947,342.597 327.5,346C 325.741,346.798 324.074,346.631 322.5,345.5C 318.5,338.833 314.5,332.167 310.5,325.5C 329.605,309.627 340.605,289.294 343.5,264.5C 352.167,264.5 360.833,264.5 369.5,264.5C 372.023,274.237 374.856,283.904 378,293.5C 382.133,297.9 386.8,298.567 392,295.5C 393.504,291.961 393.837,288.295 393,284.5C 390,273.833 387,263.167 384,252.5C 383.215,250.714 382.049,249.214 380.5,248C 368.242,246.561 355.909,246.061 343.5,246.5C 341.949,227.507 334.949,210.84 322.5,196.5C 326.764,186.139 331.431,175.972 336.5,166C 344.529,166.804 352.529,168.137 360.5,170C 371.571,171.598 375.405,167.098 372,156.5C 370.581,155.54 369.081,154.707 367.5,154C 355.267,151.62 343.101,149.12 331,146.5C 328.169,146.958 325.836,148.292 324,150.5C 319.197,162.106 313.863,173.439 308,184.5C 295.499,174.836 281.332,169.503 265.5,168.5C 265.813,134.482 265.48,100.482 264.5,66.5C 267.209,56.4574 273.543,50.1241 283.5,47.5 Z M 252.5,183.5 C 291.9,185.411 316.4,205.411 326,243.5C 329.425,280.162 314.592,306.328 281.5,322C 246.131,332.434 217.964,322.601 197,292.5C 181.252,262.962 183.586,234.962 204,208.5C 217.291,194.439 233.457,186.106 252.5,183.5 Z M 239.5,248.5 C 241.141,252.4 242.808,256.4 244.5,260.5C 241.572,261.484 238.572,261.817 235.5,261.5C 236.546,257.076 237.879,252.743 239.5,248.5 Z"/></g>
<g><path style="opacity:0.954" fill="#fefffe" d="M 291.5,218.5 C 295.115,218.206 298.282,219.206 301,221.5C 301.667,244.167 301.667,266.833 301,289.5C 296.333,293.5 291.667,293.5 287,289.5C 286.333,266.833 286.333,244.167 287,221.5C 288.409,220.219 289.909,219.219 291.5,218.5 Z"/></g>
<g><path style="opacity:0.927" fill="#fefffe" d="M 234.5,220.5 C 238.182,220.335 241.848,220.501 245.5,221C 254.332,241.509 262.499,262.342 270,283.5C 271.403,289.605 268.903,292.605 262.5,292.5C 260.423,292.308 258.423,291.808 256.5,291C 254.007,286.35 252.007,281.516 250.5,276.5C 243.492,276.334 236.492,276.5 229.5,277C 227.593,281.559 225.593,286.059 223.5,290.5C 218.715,293.372 214.215,293.038 210,289.5C 209.333,287.167 209.333,284.833 210,282.5C 217.498,261.493 225.665,240.827 234.5,220.5 Z M 239.5,248.5 C 237.879,252.743 236.546,257.076 235.5,261.5C 238.572,261.817 241.572,261.484 244.5,260.5C 242.808,256.4 241.141,252.4 239.5,248.5 Z"/></g>
</svg>
