<?xml version="1.0" encoding="UTF-8"?>
<!DOCTYPE svg PUBLIC "-//W3C//DTD SVG 1.1//EN" "http://www.w3.org/Graphics/SVG/1.1/DTD/svg11.dtd">
<svg xmlns="http://www.w3.org/2000/svg" version="1.1" width="512px" height="512px" style="shape-rendering:geometricPrecision; text-rendering:geometricPrecision; image-rendering:optimizeQuality; fill-rule:evenodd; clip-rule:evenodd" xmlns:xlink="http://www.w3.org/1999/xlink">
<g><path style="opacity:0.934" fill="#fefffe" d="M 236.5,7.5 C 296.637,3.49891 351.137,18.8322 400,53.5C 399.494,49.1346 398.494,44.8013 397,40.5C 394.285,30.8991 397.785,26.3991 407.5,27C 410.428,28.2598 412.261,30.4265 413,33.5C 417.244,48.3111 421.411,63.1444 425.5,78C 424.926,82.2392 422.592,84.9058 418.5,86C 401.838,86.9487 385.172,87.282 368.5,87C 362.491,82.3298 362.158,77.3298 367.5,72C 376.091,70.7559 384.758,70.0892 393.5,70C 346.531,35.7509 293.864,20.4176 235.5,24C 228.657,18.0515 228.991,12.5515 236.5,7.5 Z"/></g>
<g><path style="opacity:0.92" fill="#fefffe" d="M 175.5,19.5 C 184.658,17.8346 188.825,21.5013 188,30.5C 187.215,32.286 186.049,33.786 184.5,35C 137.32,50.9095 98.6536,78.5761 68.5,118C 58.1377,119.759 54.3043,115.592 57,105.5C 88.105,65.2039 127.605,36.5372 175.5,19.5 Z"/></g>
<g><path style="opacity:0.932" fill="#fefffe" d="M 239.5,101.5 C 251.243,101.064 262.91,101.564 274.5,103C 276.617,104.731 278.117,106.898 279,109.5C 281.069,115.206 283.235,120.872 285.5,126.5C 299.449,130.392 312.616,136.059 325,143.5C 331.092,140.538 337.258,137.705 343.5,135C 346.964,134.183 350.298,134.517 353.5,136C 361.365,143.53 368.865,151.364 376,159.5C 376.667,162.167 376.667,164.833 376,167.5C 373.295,173.742 370.462,179.908 367.5,186C 374.743,197.825 380.077,210.492 383.5,224C 390.565,227.699 397.899,231.032 405.5,234C 407.487,235.319 408.654,237.152 409,239.5C 409.935,251.238 409.602,262.905 408,274.5C 406.269,276.617 404.102,278.117 401.5,279C 395.794,281.069 390.128,283.235 384.5,285.5C 380.608,299.449 374.941,312.616 367.5,325C 370.462,331.092 373.295,337.258 376,343.5C 376.817,346.964 376.483,350.298 375,353.5C 367.47,361.365 359.636,368.865 351.5,376C 348.833,376.667 346.167,376.667 343.5,376C 337.258,373.295 331.092,370.462 325,367.5C 313.175,374.743 300.508,380.077 287,383.5C 283.301,390.565 279.968,397.899 277,405.5C 275.681,407.487 273.848,408.654 271.5,409C 259.762,409.935 248.095,409.602 236.5,408C 234.383,406.269 232.883,404.102 232,401.5C 229.931,395.794 227.765,390.128 225.5,384.5C 211.551,380.608 198.384,374.941 186,367.5C 179.908,370.462 173.742,373.295 167.5,376C 164.036,376.817 160.702,376.483 157.5,375C 149.635,367.47 142.135,359.636 135,351.5C 134.333,348.833 134.333,346.167 135,343.5C 137.705,337.258 140.538,331.092 143.5,325C 136.257,313.175 130.923,300.508 127.5,287C 120.435,283.301 113.101,279.968 105.5,277C 103.513,275.681 102.346,273.848 102,271.5C 101.065,259.762 101.398,248.095 103,236.5C 104.731,234.383 106.898,232.883 109.5,232C 115.206,229.931 120.872,227.765 126.5,225.5C 130.392,211.551 136.059,198.384 143.5,186C 140.538,179.908 137.705,173.742 135,167.5C 134.183,164.036 134.517,160.702 136,157.5C 143.53,149.635 151.364,142.135 159.5,135C 162.167,134.333 164.833,134.333 167.5,135C 173.742,137.705 179.908,140.538 186,143.5C 197.825,136.257 210.492,130.923 224,127.5C 227.699,120.435 231.032,113.101 234,105.5C 235.5,103.531 237.333,102.198 239.5,101.5 Z M 246.5,118.5 C 252.5,118.5 258.5,118.5 264.5,118.5C 266.619,126.898 269.952,134.731 274.5,142C 291.079,145.413 306.413,151.746 320.5,161C 322.833,161.667 325.167,161.667 327.5,161C 333.742,158.295 339.908,155.462 346,152.5C 350.167,156.667 354.333,160.833 358.5,165C 355.538,171.092 352.705,177.258 350,183.5C 349.333,185.833 349.333,188.167 350,190.5C 359.254,204.587 365.587,219.921 369,236.5C 376.269,241.048 384.102,244.381 392.5,246.5C 392.5,252.5 392.5,258.5 392.5,264.5C 384.102,266.619 376.269,269.952 369,274.5C 365.587,291.079 359.254,306.413 350,320.5C 349.333,322.833 349.333,325.167 350,327.5C 352.705,333.742 355.538,339.908 358.5,346C 354.333,350.167 350.167,354.333 346,358.5C 339.908,355.538 333.742,352.705 327.5,350C 325.167,349.333 322.833,349.333 320.5,350C 306.413,359.254 291.079,365.587 274.5,369C 269.952,376.269 266.619,384.102 264.5,392.5C 258.5,392.5 252.5,392.5 246.5,392.5C 244.381,384.102 241.048,376.269 236.5,369C 219.921,365.587 204.587,359.254 190.5,350C 188.167,349.333 185.833,349.333 183.5,350C 177.258,352.705 171.092,355.538 165,358.5C 160.833,354.333 156.667,350.167 152.5,346C 155.462,339.908 158.295,333.742 161,327.5C 161.667,325.167 161.667,322.833 161,320.5C 151.746,306.413 145.413,291.079 142,274.5C 134.731,269.952 126.898,266.619 118.5,264.5C 118.5,258.5 118.5,252.5 118.5,246.5C 126.898,244.381 134.731,241.048 142,236.5C 145.413,219.921 151.746,204.587 161,190.5C 161.667,188.167 161.667,185.833 161,183.5C 158.295,177.258 155.462,171.092 152.5,165C 156.667,160.833 160.833,156.667 165,152.5C 171.092,155.462 177.258,158.295 183.5,161C 185.833,161.667 188.167,161.667 190.5,161C 204.587,151.746 219.921,145.413 236.5,142C 241.048,134.731 244.381,126.898 246.5,118.5 Z M 253.5,199.5 C 288.238,202.238 307.571,220.905 311.5,255.5C 307.847,289.153 289.18,307.82 255.5,311.5C 221.833,307.833 203.167,289.167 199.5,255.5C 203.016,222.654 221.016,203.987 253.5,199.5 Z"/></g>
<g><path style="opacity:0.899" fill="#fefffe" d="M 459.5,126.5 C 462.649,126.211 465.649,126.711 468.5,128C 475.958,139.417 481.958,151.584 486.5,164.5C 483.98,173.285 478.814,175.285 471,170.5C 466.194,159.554 460.861,148.888 455,138.5C 453.474,133.239 454.974,129.239 459.5,126.5 Z"/></g>
<g><path style="opacity:0.929" fill="#fefffe" d="M 30.5,154.5 C 37.5341,152.894 41.5341,155.56 42.5,162.5C 34.6618,182.851 29.1618,203.851 26,225.5C 23.866,246.196 24.0326,266.863 26.5,287.5C 24.0303,296.655 18.8636,298.655 11,293.5C 3.18972,247.46 8.18972,202.793 26,159.5C 27.025,157.313 28.525,155.646 30.5,154.5 Z"/></g>
<g><path style="opacity:0.934" fill="#fefffe" d="M 252.5,182.5 C 289.742,183.919 314.242,202.253 326,237.5C 332.785,274.512 319.952,302.345 287.5,321C 253.506,334.625 224.006,328.125 199,301.5C 177.45,271.42 177.117,241.086 198,210.5C 212.229,193.303 230.396,183.97 252.5,182.5 Z M 253.5,199.5 C 221.016,203.987 203.016,222.654 199.5,255.5C 203.167,289.167 221.833,307.833 255.5,311.5C 289.18,307.82 307.847,289.153 311.5,255.5C 307.571,220.905 288.238,202.238 253.5,199.5 Z"/></g>
<g><path style="opacity:0.93" fill="#fefffe" d="M 490.5,214.5 C 497.419,213.588 501.253,216.588 502,223.5C 507.387,268.454 501.387,311.788 484,353.5C 478.643,357.787 473.643,357.453 469,352.5C 468.833,351.167 468.667,349.833 468.5,348.5C 476.338,328.15 481.838,307.15 485,285.5C 487.134,264.804 486.967,244.137 484.5,223.5C 484.96,219.39 486.96,216.39 490.5,214.5 Z"/></g>
<g><path style="opacity:0.898" fill="#fefffe" d="M 31.5,337.5 C 34.675,337.503 37.5084,338.503 40,340.5C 44.8061,351.446 50.1394,362.112 56,372.5C 57.5,381.667 53.6667,385.5 44.5,384C 43.0692,383.535 41.9025,382.701 41,381.5C 34.4212,370.342 28.9212,358.676 24.5,346.5C 25.0424,341.973 27.3757,338.973 31.5,337.5 Z"/></g>
<g><path style="opacity:0.92" fill="#fefffe" d="M 442.5,392.5 C 452.851,391.235 456.684,395.568 454,405.5C 423.124,445.864 383.624,474.364 335.5,491C 326.338,493.161 322.171,489.661 323,480.5C 323.785,478.714 324.951,477.214 326.5,476C 373.941,460.135 412.608,432.301 442.5,392.5 Z"/></g>
<g><path style="opacity:0.934" fill="#fefffe" d="M 118.5,423.5 C 126.507,423.334 134.507,423.5 142.5,424C 148.509,428.67 148.842,433.67 143.5,439C 134.909,440.244 126.242,440.911 117.5,441C 164.469,475.249 217.136,490.582 275.5,487C 282.408,492.792 282.074,498.126 274.5,503C 214.438,507.197 159.938,492.03 111,457.5C 111.506,461.865 112.506,466.199 114,470.5C 116.715,480.101 113.215,484.601 103.5,484C 101.714,483.215 100.214,482.049 99,480.5C 94.2973,464.725 89.7973,448.892 85.5,433C 86.0744,428.761 88.4077,426.094 92.5,425C 101.343,424.83 110.01,424.33 118.5,423.5 Z"/></g>
</svg>
