<?xml version="1.0" encoding="UTF-8"?>
<!DOCTYPE svg PUBLIC "-//W3C//DTD SVG 1.1//EN" "http://www.w3.org/Graphics/SVG/1.1/DTD/svg11.dtd">
<svg xmlns="http://www.w3.org/2000/svg" version="1.1" width="512px" height="512px" style="shape-rendering:geometricPrecision; text-rendering:geometricPrecision; image-rendering:optimizeQuality; fill-rule:evenodd; clip-rule:evenodd" xmlns:xlink="http://www.w3.org/1999/xlink">
<g><path style="opacity:0.997" fill="#fefffe" d="M 32.5,39.5 C 181.167,39.3333 329.834,39.5 478.5,40C 486.667,42.8333 492.167,48.3333 495,56.5C 495.667,189.167 495.667,321.833 495,454.5C 492.167,462.667 486.667,468.167 478.5,471C 329.833,471.667 181.167,471.667 32.5,471C 24.3333,468.167 18.8333,462.667 16,454.5C 15.3333,321.833 15.3333,189.167 16,56.5C 19.0191,48.3156 24.5191,42.649 32.5,39.5 Z M 39.5,55.5 C 183.5,55.3333 327.5,55.5 471.5,56C 476,56.5 478.5,59 479,63.5C 479.5,71.4931 479.666,79.4931 479.5,87.5C 330.167,87.5 180.833,87.5 31.5,87.5C 31.3336,79.4931 31.5003,71.4931 32,63.5C 32.6804,58.9895 35.1804,56.3228 39.5,55.5 Z M 31.5,103.5 C 180.833,103.5 330.167,103.5 479.5,103.5C 479.667,218.167 479.5,332.834 479,447.5C 478.5,452 476,454.5 471.5,455C 327.5,455.667 183.5,455.667 39.5,455C 35,454.5 32.5,452 32,447.5C 31.5,332.834 31.3333,218.167 31.5,103.5 Z M 249.5,144.5 C 256.799,143.489 263.466,144.989 269.5,149C 278.203,155.874 284.87,164.374 289.5,174.5C 266.833,175.833 244.167,175.833 221.5,174.5C 227.231,160.962 236.564,150.962 249.5,144.5 Z M 213.5,150.5 C 214.376,150.369 215.043,150.702 215.5,151.5C 210.456,159.085 205.789,166.919 201.5,175C 190.833,175.667 180.167,175.667 169.5,175C 182.873,164.481 197.54,156.314 213.5,150.5 Z M 294.5,151.5 C 294.735,150.903 295.235,150.57 296,150.5C 312.729,155.945 327.896,164.112 341.5,175C 330.485,175.832 319.485,175.666 308.5,174.5C 305.063,165.936 300.396,158.269 294.5,151.5 Z M 152.5,191.5 C 166.833,191.5 181.167,191.5 195.5,191.5C 187.6,217.571 183.6,244.237 183.5,271.5C 162.5,271.5 141.5,271.5 120.5,271.5C 122.374,241.192 133.04,214.526 152.5,191.5 Z M 213.5,191.5 C 241.5,191.5 269.5,191.5 297.5,191.5C 306.159,217.456 310.493,244.123 310.5,271.5C 273.833,271.5 237.167,271.5 200.5,271.5C 200.509,244.116 204.842,217.449 213.5,191.5 Z M 315.5,191.5 C 329.837,191.333 344.171,191.5 358.5,192C 378.137,214.789 388.803,241.289 390.5,271.5C 369.5,271.5 348.5,271.5 327.5,271.5C 327.508,244.22 323.508,217.554 315.5,191.5 Z M 120.5,287.5 C 141.5,287.5 162.5,287.5 183.5,287.5C 183.697,314.715 188.03,341.215 196.5,367C 181.833,367.667 167.167,367.667 152.5,367C 133.336,344.025 122.669,317.525 120.5,287.5 Z M 200.5,287.5 C 237.167,287.5 273.833,287.5 310.5,287.5C 310.6,314.569 306.266,340.902 297.5,366.5C 269.508,367.5 241.508,367.833 213.5,367.5C 204.842,341.549 200.508,314.882 200.5,287.5 Z M 327.5,287.5 C 348.5,287.5 369.5,287.5 390.5,287.5C 388.724,317.678 378.057,344.178 358.5,367C 344.171,367.5 329.837,367.667 315.5,367.5C 323.4,341.429 327.4,314.763 327.5,287.5 Z M 169.5,384.5 C 180.34,383.176 191.34,383.176 202.5,384.5C 206.034,393.077 210.701,400.911 216.5,408C 205.935,405.728 195.935,401.728 186.5,396C 180.776,392.147 175.109,388.313 169.5,384.5 Z M 221.5,383.5 C 244.176,383.167 266.843,383.5 289.5,384.5C 283.816,396.4 275.482,405.9 264.5,413C 254.258,416.401 245.258,414.401 237.5,407C 230.539,400.235 225.206,392.402 221.5,383.5 Z M 309.5,383.5 C 320.172,383.333 330.839,383.5 341.5,384C 328.005,394.751 313.005,402.918 296.5,408.5C 295.479,407.998 295.312,407.332 296,406.5C 301.126,399.206 305.626,391.539 309.5,383.5 Z"/></g>
<g><path style="opacity:1" fill="#fefffe" d="M 47.5,63.5 C 52.8333,63.5 58.1667,63.5 63.5,63.5C 63.5,68.8333 63.5,74.1667 63.5,79.5C 58.1667,79.5 52.8333,79.5 47.5,79.5C 47.5,74.1667 47.5,68.8333 47.5,63.5 Z"/></g>
<g><path style="opacity:1" fill="#fefffe" d="M 79.5,63.5 C 84.8333,63.5 90.1667,63.5 95.5,63.5C 95.5,68.8333 95.5,74.1667 95.5,79.5C 90.1667,79.5 84.8333,79.5 79.5,79.5C 79.5,74.1667 79.5,68.8333 79.5,63.5 Z"/></g>
<g><path style="opacity:1" fill="#fefffe" d="M 111.5,63.5 C 116.833,63.5 122.167,63.5 127.5,63.5C 127.5,68.8333 127.5,74.1667 127.5,79.5C 122.167,79.5 116.833,79.5 111.5,79.5C 111.5,74.1667 111.5,68.8333 111.5,63.5 Z"/></g>
<g><path style="opacity:1" fill="#fefffe" d="M 151.5,127.5 C 156.833,127.5 162.167,127.5 167.5,127.5C 167.5,132.833 167.5,138.167 167.5,143.5C 162.167,143.5 156.833,143.5 151.5,143.5C 151.5,138.167 151.5,132.833 151.5,127.5 Z"/></g>
<g><path style="opacity:0.957" fill="#fefffe" d="M 238.5,127.5 C 302.541,123.604 352.041,148.271 387,201.5C 408.326,239.778 413.326,280.112 402,322.5C 381.04,384.564 338.207,420.731 273.5,431C 208.049,435.692 157.883,410.525 123,355.5C 102.328,317.75 97.6616,278.084 109,236.5C 130.45,174.213 173.616,137.88 238.5,127.5 Z M 249.5,144.5 C 236.564,150.962 227.231,160.962 221.5,174.5C 244.167,175.833 266.833,175.833 289.5,174.5C 284.87,164.374 278.203,155.874 269.5,149C 263.466,144.989 256.799,143.489 249.5,144.5 Z M 213.5,150.5 C 197.54,156.314 182.873,164.481 169.5,175C 180.167,175.667 190.833,175.667 201.5,175C 205.789,166.919 210.456,159.085 215.5,151.5C 215.043,150.702 214.376,150.369 213.5,150.5 Z M 294.5,151.5 C 300.396,158.269 305.063,165.936 308.5,174.5C 319.485,175.666 330.485,175.832 341.5,175C 327.896,164.112 312.729,155.945 296,150.5C 295.235,150.57 294.735,150.903 294.5,151.5 Z M 152.5,191.5 C 133.04,214.526 122.374,241.192 120.5,271.5C 141.5,271.5 162.5,271.5 183.5,271.5C 183.6,244.237 187.6,217.571 195.5,191.5C 181.167,191.5 166.833,191.5 152.5,191.5 Z M 213.5,191.5 C 204.842,217.449 200.509,244.116 200.5,271.5C 237.167,271.5 273.833,271.5 310.5,271.5C 310.493,244.123 306.159,217.456 297.5,191.5C 269.5,191.5 241.5,191.5 213.5,191.5 Z M 315.5,191.5 C 323.508,217.554 327.508,244.22 327.5,271.5C 348.5,271.5 369.5,271.5 390.5,271.5C 388.803,241.289 378.137,214.789 358.5,192C 344.171,191.5 329.837,191.333 315.5,191.5 Z M 120.5,287.5 C 122.669,317.525 133.336,344.025 152.5,367C 167.167,367.667 181.833,367.667 196.5,367C 188.03,341.215 183.697,314.715 183.5,287.5C 162.5,287.5 141.5,287.5 120.5,287.5 Z M 200.5,287.5 C 200.508,314.882 204.842,341.549 213.5,367.5C 241.508,367.833 269.508,367.5 297.5,366.5C 306.266,340.902 310.6,314.569 310.5,287.5C 273.833,287.5 237.167,287.5 200.5,287.5 Z M 327.5,287.5 C 327.4,314.763 323.4,341.429 315.5,367.5C 329.837,367.667 344.171,367.5 358.5,367C 378.057,344.178 388.724,317.678 390.5,287.5C 369.5,287.5 348.5,287.5 327.5,287.5 Z M 169.5,384.5 C 175.109,388.313 180.776,392.147 186.5,396C 195.935,401.728 205.935,405.728 216.5,408C 210.701,400.911 206.034,393.077 202.5,384.5C 191.34,383.176 180.34,383.176 169.5,384.5 Z M 221.5,383.5 C 225.206,392.402 230.539,400.235 237.5,407C 245.258,414.401 254.258,416.401 264.5,413C 275.482,405.9 283.816,396.4 289.5,384.5C 266.843,383.5 244.176,383.167 221.5,383.5 Z M 309.5,383.5 C 305.626,391.539 301.126,399.206 296,406.5C 295.312,407.332 295.479,407.998 296.5,408.5C 313.005,402.918 328.005,394.751 341.5,384C 330.839,383.5 320.172,383.333 309.5,383.5 Z"/></g>
<g><path style="opacity:1" fill="#fefffe" d="M 343.5,127.5 C 348.833,127.5 354.167,127.5 359.5,127.5C 359.5,132.833 359.5,138.167 359.5,143.5C 354.167,143.5 348.833,143.5 343.5,143.5C 343.5,138.167 343.5,132.833 343.5,127.5 Z"/></g>
<g><path style="opacity:1" fill="#fefffe" d="M 127.5,143.5 C 132.833,143.5 138.167,143.5 143.5,143.5C 143.5,148.833 143.5,154.167 143.5,159.5C 138.167,159.5 132.833,159.5 127.5,159.5C 127.5,154.167 127.5,148.833 127.5,143.5 Z"/></g>
<g><path style="opacity:1" fill="#fefffe" d="M 367.5,143.5 C 372.833,143.5 378.167,143.5 383.5,143.5C 383.5,148.833 383.5,154.167 383.5,159.5C 378.167,159.5 372.833,159.5 367.5,159.5C 367.5,154.167 367.5,148.833 367.5,143.5 Z"/></g>
<g><path style="opacity:1" fill="#fefffe" d="M 103.5,159.5 C 108.833,159.5 114.167,159.5 119.5,159.5C 119.5,164.833 119.5,170.167 119.5,175.5C 114.167,175.5 108.833,175.5 103.5,175.5C 103.5,170.167 103.5,164.833 103.5,159.5 Z"/></g>
<g><path style="opacity:1" fill="#fefffe" d="M 391.5,159.5 C 396.833,159.5 402.167,159.5 407.5,159.5C 407.5,164.833 407.5,170.167 407.5,175.5C 402.167,175.5 396.833,175.5 391.5,175.5C 391.5,170.167 391.5,164.833 391.5,159.5 Z"/></g>
<g><path style="opacity:0.903" fill="#fefffe" d="M 80.5,241.5 C 85.4194,244.748 89.7528,248.748 93.5,253.5C 85.1667,262.167 76.8333,270.833 68.5,279.5C 76.8333,288.167 85.1667,296.833 93.5,305.5C 89.8333,309.833 85.8333,313.833 81.5,317.5C 70.5141,307.014 59.6807,296.348 49,285.5C 48.0691,283.541 47.2357,281.541 46.5,279.5C 47.2357,277.459 48.0691,275.459 49,273.5C 59.7021,262.965 70.2021,252.298 80.5,241.5 Z"/></g>
<g><path style="opacity:0.903" fill="#fefffe" d="M 428.5,241.5 C 440.08,251.577 451.247,262.243 462,273.5C 462.931,275.459 463.764,277.459 464.5,279.5C 463.764,281.541 462.931,283.541 462,285.5C 451.319,296.348 440.486,307.014 429.5,317.5C 425.167,313.833 421.167,309.833 417.5,305.5C 425.833,296.833 434.167,288.167 442.5,279.5C 434.167,270.833 425.833,262.167 417.5,253.5C 421.189,249.48 424.855,245.48 428.5,241.5 Z"/></g>
<g><path style="opacity:1" fill="#fefffe" d="M 103.5,383.5 C 108.833,383.5 114.167,383.5 119.5,383.5C 119.5,388.833 119.5,394.167 119.5,399.5C 114.167,399.5 108.833,399.5 103.5,399.5C 103.5,394.167 103.5,388.833 103.5,383.5 Z"/></g>
<g><path style="opacity:1" fill="#fefffe" d="M 391.5,383.5 C 396.833,383.5 402.167,383.5 407.5,383.5C 407.5,388.833 407.5,394.167 407.5,399.5C 402.167,399.5 396.833,399.5 391.5,399.5C 391.5,394.167 391.5,388.833 391.5,383.5 Z"/></g>
<g><path style="opacity:1" fill="#fefffe" d="M 127.5,399.5 C 132.833,399.5 138.167,399.5 143.5,399.5C 143.5,404.833 143.5,410.167 143.5,415.5C 138.167,415.5 132.833,415.5 127.5,415.5C 127.5,410.167 127.5,404.833 127.5,399.5 Z"/></g>
<g><path style="opacity:1" fill="#fefffe" d="M 367.5,399.5 C 372.833,399.5 378.167,399.5 383.5,399.5C 383.5,404.833 383.5,410.167 383.5,415.5C 378.167,415.5 372.833,415.5 367.5,415.5C 367.5,410.167 367.5,404.833 367.5,399.5 Z"/></g>
<g><path style="opacity:1" fill="#fefffe" d="M 151.5,415.5 C 156.833,415.5 162.167,415.5 167.5,415.5C 167.5,420.833 167.5,426.167 167.5,431.5C 162.167,431.5 156.833,431.5 151.5,431.5C 151.5,426.167 151.5,420.833 151.5,415.5 Z"/></g>
<g><path style="opacity:1" fill="#fefffe" d="M 343.5,415.5 C 348.833,415.5 354.167,415.5 359.5,415.5C 359.5,420.833 359.5,426.167 359.5,431.5C 354.167,431.5 348.833,431.5 343.5,431.5C 343.5,426.167 343.5,420.833 343.5,415.5 Z"/></g>
</svg>
