<?xml version="1.0" encoding="UTF-8"?>
<!DOCTYPE svg PUBLIC "-//W3C//DTD SVG 1.1//EN" "http://www.w3.org/Graphics/SVG/1.1/DTD/svg11.dtd">
<svg xmlns="http://www.w3.org/2000/svg" version="1.1" width="512px" height="512px" style="shape-rendering:geometricPrecision; text-rendering:geometricPrecision; image-rendering:optimizeQuality; fill-rule:evenodd; clip-rule:evenodd" xmlns:xlink="http://www.w3.org/1999/xlink">
<g><path style="opacity:1" fill="#4f7cd1" d="M 111.5,-0.5 C 205.833,-0.5 300.167,-0.5 394.5,-0.5C 427.152,7.3195 447.319,27.6528 455,60.5C 457.696,87.5959 448.863,110.096 428.5,128C 424.438,131.029 420.105,133.529 415.5,135.5C 415.667,120.496 415.5,105.496 415,90.5C 412.744,85.2425 408.91,81.7425 403.5,80C 381.833,79.3333 360.167,79.3333 338.5,80C 300.739,86.7146 274.739,107.881 260.5,143.5C 178.427,139.224 110.261,167.557 56,228.5C 23.4109,268.096 4.57759,313.429 -0.5,364.5C -0.5,280.167 -0.5,195.833 -0.5,111.5C 8.7041,57.4517 39.3708,21.6184 91.5,4C 98.2585,2.28494 104.925,0.784944 111.5,-0.5 Z"/></g>
<g><path style="opacity:0.998" fill="#3764b9" d="M 394.5,-0.5 C 396.167,-0.5 397.833,-0.5 399.5,-0.5C 453.548,8.7041 489.382,39.3708 507,91.5C 508.715,98.2585 510.215,104.925 511.5,111.5C 511.5,121.167 511.5,130.833 511.5,140.5C 503.977,191.197 476.644,226.697 429.5,247C 423.938,248.974 418.271,250.474 412.5,251.5C 412.795,253.735 412.461,255.735 411.5,257.5C 412.126,248.961 408.46,243.128 400.5,240C 378.836,239.5 357.169,239.333 335.5,239.5C 335.333,216.498 335.5,193.498 336,170.5C 338.167,165.667 341.667,162.167 346.5,160C 366.564,159.964 386.564,159.298 406.5,158C 414.461,152.641 417.461,145.141 415.5,135.5C 420.105,133.529 424.438,131.029 428.5,128C 448.863,110.096 457.696,87.5959 455,60.5C 447.319,27.6528 427.152,7.3195 394.5,-0.5 Z"/></g>
<g><path style="opacity:1" fill="#fefefe" d="M 415.5,135.5 C 417.461,145.141 414.461,152.641 406.5,158C 386.564,159.298 366.564,159.964 346.5,160C 341.667,162.167 338.167,165.667 336,170.5C 335.5,193.498 335.333,216.498 335.5,239.5C 357.169,239.333 378.836,239.5 400.5,240C 408.46,243.128 412.126,248.961 411.5,257.5C 408.143,274.119 404.976,290.786 402,307.5C 400.167,313.333 396.333,317.167 390.5,319C 372.17,319.5 353.836,319.667 335.5,319.5C 335.5,380.5 335.5,441.5 335.5,502.5C 335.5,505.5 335.5,508.5 335.5,511.5C 308.833,511.5 282.167,511.5 255.5,511.5C 255.5,447.5 255.5,383.5 255.5,319.5C 237.83,319.667 220.164,319.5 202.5,319C 197.243,316.744 193.743,312.91 192,307.5C 191.333,288.5 191.333,269.5 192,250.5C 194.167,245.667 197.667,242.167 202.5,240C 220.164,239.5 237.83,239.333 255.5,239.5C 255.333,213.831 255.5,188.165 256,162.5C 257.076,156.03 258.576,149.696 260.5,143.5C 274.739,107.881 300.739,86.7146 338.5,80C 360.167,79.3333 381.833,79.3333 403.5,80C 408.91,81.7425 412.744,85.2425 415,90.5C 415.5,105.496 415.667,120.496 415.5,135.5 Z"/></g>
<g><path style="opacity:1" fill="#1e4ba0" d="M 511.5,140.5 C 511.5,226.833 511.5,313.167 511.5,399.5C 502.296,453.548 471.629,489.382 419.5,507C 412.741,508.715 406.075,510.215 399.5,511.5C 389.833,511.5 380.167,511.5 370.5,511.5C 358.657,509.622 346.991,506.622 335.5,502.5C 335.5,441.5 335.5,380.5 335.5,319.5C 353.836,319.667 372.17,319.5 390.5,319C 396.333,317.167 400.167,313.333 402,307.5C 404.976,290.786 408.143,274.119 411.5,257.5C 412.461,255.735 412.795,253.735 412.5,251.5C 418.271,250.474 423.938,248.974 429.5,247C 476.644,226.697 503.977,191.197 511.5,140.5 Z"/></g>
<g><path style="opacity:0.999" fill="#3764b9" d="M 260.5,143.5 C 258.576,149.696 257.076,156.03 256,162.5C 255.5,188.165 255.333,213.831 255.5,239.5C 237.83,239.333 220.164,239.5 202.5,240C 197.667,242.167 194.167,245.667 192,250.5C 191.333,269.5 191.333,288.5 192,307.5C 193.743,312.91 197.243,316.744 202.5,319C 220.164,319.5 237.83,319.667 255.5,319.5C 255.5,383.5 255.5,447.5 255.5,511.5C 207.5,511.5 159.5,511.5 111.5,511.5C 57.4517,502.296 21.6184,471.629 4,419.5C 2.28494,412.741 0.784944,406.075 -0.5,399.5C -0.5,387.833 -0.5,376.167 -0.5,364.5C 4.57759,313.429 23.4109,268.096 56,228.5C 110.261,167.557 178.427,139.224 260.5,143.5 Z"/></g>
<g><path style="opacity:1" fill="#3663b8" d="M 335.5,502.5 C 346.991,506.622 358.657,509.622 370.5,511.5C 358.833,511.5 347.167,511.5 335.5,511.5C 335.5,508.5 335.5,505.5 335.5,502.5 Z"/></g>
</svg>
