<?xml version="1.0" encoding="UTF-8"?>
<!DOCTYPE svg PUBLIC "-//W3C//DTD SVG 1.1//EN" "http://www.w3.org/Graphics/SVG/1.1/DTD/svg11.dtd">
<svg xmlns="http://www.w3.org/2000/svg" version="1.1" width="512px" height="512px" style="shape-rendering:geometricPrecision; text-rendering:geometricPrecision; image-rendering:optimizeQuality; fill-rule:evenodd; clip-rule:evenodd" xmlns:xlink="http://www.w3.org/1999/xlink">
<g><path style="opacity:0.932" fill="#fefffe" d="M 203.5,7.5 C 240.533,4.2581 267.033,19.2581 283,52.5C 294.523,88.9285 285.023,118.429 254.5,141C 218.717,159.526 186.884,154.359 159,125.5C 142.603,103.169 138.937,78.8357 148,52.5C 158.813,27.8641 177.313,12.8641 203.5,7.5 Z M 205.5,24.5 C 231.01,21.674 250.51,31.0074 264,52.5C 277.412,83.7034 270.245,108.87 242.5,128C 211.297,141.412 186.13,134.245 167,106.5C 153.588,75.2966 160.755,50.1299 188.5,31C 194.054,28.2101 199.721,26.0435 205.5,24.5 Z M 207.5,69.5 C 214.423,72.2951 221.09,75.6284 227.5,79.5C 221.325,83.0882 214.991,86.4215 208.5,89.5C 207.503,82.8665 207.17,76.1998 207.5,69.5 Z"/></g>
<g><path style="opacity:0.982" fill="#fefffe" d="M 368.5,15.5 C 405.168,15.3333 441.835,15.5 478.5,16C 486.667,18.8333 492.167,24.3333 495,32.5C 495.667,69.1667 495.667,105.833 495,142.5C 492.167,150.667 486.667,156.167 478.5,159C 441.833,159.667 405.167,159.667 368.5,159C 360.333,156.167 354.833,150.667 352,142.5C 351.333,122.833 351.333,103.167 352,83.5C 353.529,80.484 356.029,79.1506 359.5,79.5C 362.971,79.1506 365.471,80.484 367,83.5C 367.333,100.833 367.667,118.167 368,135.5C 368.406,138.494 369.906,140.661 372.5,142C 405.439,143.645 438.439,143.979 471.5,143C 476,142.5 478.5,140 479,135.5C 479.667,103.5 479.667,71.5 479,39.5C 478.5,35 476,32.5 471.5,32C 439.5,31.3333 407.5,31.3333 375.5,32C 371,32.5 368.5,35 368,39.5C 367.93,46.9385 367.263,54.2718 366,61.5C 362.744,63.4285 359.244,63.9285 355.5,63C 353.667,62.5 352.5,61.3333 352,59.5C 351.333,50.5 351.333,41.5 352,32.5C 355.019,24.3156 360.519,18.649 368.5,15.5 Z"/></g>
<g><path style="opacity:0.958" fill="#fefffe" d="M 195.5,47.5 C 198.187,47.3359 200.854,47.5026 203.5,48C 220.167,56.3333 236.833,64.6667 253.5,73C 255.942,77.0524 256.109,81.2191 254,85.5C 237.244,94.1278 220.411,102.628 203.5,111C 200.036,111.817 196.702,111.483 193.5,110C 192.874,109.25 192.374,108.416 192,107.5C 191.333,88.8333 191.333,70.1667 192,51.5C 192.69,49.6498 193.856,48.3164 195.5,47.5 Z M 207.5,69.5 C 207.17,76.1998 207.503,82.8665 208.5,89.5C 214.991,86.4215 221.325,83.0882 227.5,79.5C 221.09,75.6284 214.423,72.2951 207.5,69.5 Z"/></g>
<g><path style="opacity:0.965" fill="#fefffe" d="M 424.5,47.5 C 433.506,47.3336 442.506,47.5002 451.5,48C 454.516,49.5286 455.849,52.0286 455.5,55.5C 455.849,58.9714 454.516,61.4714 451.5,63C 444.833,63.3333 438.167,63.6667 431.5,64C 427,64.5 424.5,67 424,71.5C 423.503,74.146 423.336,76.8127 423.5,79.5C 427.514,79.3345 431.514,79.5012 435.5,80C 438.516,81.5286 439.849,84.0286 439.5,87.5C 439.596,89.9259 438.93,92.0926 437.5,94C 432.964,95.3789 428.297,95.8789 423.5,95.5C 423.666,104.839 423.5,114.173 423,123.5C 421.471,126.516 418.971,127.849 415.5,127.5C 412.029,127.849 409.529,126.516 408,123.5C 407.5,114.173 407.334,104.839 407.5,95.5C 403.486,95.6655 399.486,95.4988 395.5,95C 392.484,93.4714 391.151,90.9714 391.5,87.5C 391.404,85.0741 392.07,82.9074 393.5,81C 398.036,79.6211 402.703,79.1211 407.5,79.5C 404.833,64.1563 410.5,53.4897 424.5,47.5 Z"/></g>
<g><path style="opacity:0.997" fill="#fefffe" d="M 19.5,87.5 C 54.1683,87.3333 88.8349,87.5 123.5,88C 124.416,88.3742 125.25,88.8742 126,89.5C 127.157,112.748 127.657,136.081 127.5,159.5C 127.333,182.167 127.167,204.833 127,227.5C 126.626,228.416 126.126,229.25 125.5,230C 107.588,231.154 89.5878,231.654 71.5,231.5C 54.1667,231.333 36.8333,231.167 19.5,231C 18.5838,230.626 17.7504,230.126 17,229.5C 15.3438,183.583 15.0104,137.583 16,91.5C 16.6897,89.6498 17.8564,88.3164 19.5,87.5 Z M 31.5,103.5 C 58.1667,103.5 84.8333,103.5 111.5,103.5C 111.5,140.833 111.5,178.167 111.5,215.5C 84.8333,215.5 58.1667,215.5 31.5,215.5C 31.5,178.167 31.5,140.833 31.5,103.5 Z"/></g>
<g><path style="opacity:0.95" fill="#fefffe" d="M 67.5,119.5 C 75.5069,119.334 83.5069,119.5 91.5,120C 93.3333,120.5 94.5,121.667 95,123.5C 95.6667,126.167 95.6667,128.833 95,131.5C 94.5,133.333 93.3333,134.5 91.5,135C 83.5,135.667 75.5,135.667 67.5,135C 64.484,133.471 63.1506,130.971 63.5,127.5C 63.2824,123.934 64.6157,121.268 67.5,119.5 Z"/></g>
<g><path style="opacity:0.92" fill="#fefffe" d="M 315.5,135.5 C 326.485,134.457 329.985,139.124 326,149.5C 317.833,160.333 309.667,171.167 301.5,182C 289.333,185.833 285.167,181.667 289,169.5C 297.728,157.956 306.561,146.623 315.5,135.5 Z"/></g>
<g><path style="opacity:0.967" fill="#fefffe" d="M 51.5,151.5 C 64.8375,151.333 78.1708,151.5 91.5,152C 93.3333,152.5 94.5,153.667 95,155.5C 95.6667,158.167 95.6667,160.833 95,163.5C 94.5,165.333 93.3333,166.5 91.5,167C 78.1667,167.667 64.8333,167.667 51.5,167C 48.484,165.471 47.1506,162.971 47.5,159.5C 47.2824,155.934 48.6157,153.268 51.5,151.5 Z"/></g>
<g><path style="opacity:0.921" fill="#fefffe" d="M 347.5,175.5 C 358.485,174.457 361.985,179.124 358,189.5C 347.167,197.667 336.333,205.833 325.5,214C 313.333,217.833 309.167,213.667 313,201.5C 324.658,192.934 336.158,184.268 347.5,175.5 Z"/></g>
<g><path style="opacity:0.967" fill="#fefffe" d="M 51.5,183.5 C 64.8375,183.333 78.1708,183.5 91.5,184C 93.3333,184.5 94.5,185.667 95,187.5C 95.6667,190.167 95.6667,192.833 95,195.5C 94.5,197.333 93.3333,198.5 91.5,199C 78.1667,199.667 64.8333,199.667 51.5,199C 48.484,197.471 47.1506,194.971 47.5,191.5C 47.2824,187.934 48.6157,185.268 51.5,183.5 Z"/></g>
<g><path style="opacity:0.929" fill="#fefffe" d="M 253.5,183.5 C 257.839,182.846 261.673,183.846 265,186.5C 268.712,192.591 271.879,198.924 274.5,205.5C 272.991,212.595 268.657,215.095 261.5,213C 258.727,210.617 256.561,207.783 255,204.5C 222.625,231.877 189.958,258.877 157,285.5C 156.48,287.289 156.813,288.956 158,290.5C 164.586,301.337 170.919,312.337 177,323.5C 177.623,331.877 173.79,335.377 165.5,334C 163.714,333.215 162.214,332.049 161,330.5C 154.838,318.838 148.171,307.504 141,296.5C 132.249,301.793 123.415,306.959 114.5,312C 107.805,316.626 105.639,322.792 108,330.5C 114.04,342.756 121.207,354.256 129.5,365C 133.555,367.34 137.889,368.007 142.5,367C 154.996,360.253 167.329,353.253 179.5,346C 222.692,330.325 265.692,314.158 308.5,297.5C 295.833,276.329 283.833,254.829 272.5,233C 275.839,223.692 281.339,222.192 289,228.5C 302.333,251.833 315.667,275.167 329,298.5C 331.178,304.951 329.011,309.118 322.5,311C 283.272,325.352 244.272,340.185 205.5,355.5C 210.92,364.672 216.087,374.006 221,383.5C 224.723,399.558 218.889,410.392 203.5,416C 193.122,417.764 184.622,414.597 178,406.5C 172.365,396.702 166.532,387.035 160.5,377.5C 145.084,388.187 129.918,387.853 115,376.5C 104.296,384.618 93.1298,385.451 81.5,379C 72.9128,372.171 69.7461,363.338 72,352.5C 75.4158,343.019 81.9158,336.519 91.5,333C 88.0735,317.853 92.7402,305.853 105.5,297C 118.665,289.585 131.665,281.919 144.5,274C 180.731,243.592 217.065,213.425 253.5,183.5 Z M 97.5,348.5 C 100.267,352.517 102.934,356.684 105.5,361C 100.266,367.211 94.7656,367.711 89,362.5C 88.3333,360.167 88.3333,357.833 89,355.5C 91.6278,352.79 94.4611,350.456 97.5,348.5 Z M 187.5,361.5 C 193.81,370.771 199.644,380.438 205,390.5C 205.344,397.153 202.177,399.987 195.5,399C 193.714,398.215 192.214,397.049 191,395.5C 186.232,386.407 181.066,377.574 175.5,369C 179.732,366.725 183.732,364.225 187.5,361.5 Z"/></g>
<g><path style="opacity:0.917" fill="#fefffe" d="M 381.5,222.5 C 390.845,223.008 394.011,227.674 391,236.5C 390.167,237.333 389.333,238.167 388.5,239C 372.076,243.487 355.409,246.153 338.5,247C 336.667,246.5 335.5,245.333 335,243.5C 334.333,240.833 334.333,238.167 335,235.5C 335.5,233.667 336.667,232.5 338.5,232C 352.971,228.875 367.304,225.708 381.5,222.5 Z"/></g>
<g><path style="opacity:0.987" fill="#fefffe" d="M 43.5,255.5 C 71.1687,255.333 98.8353,255.5 126.5,256C 131.833,261 131.833,266 126.5,271C 102.836,271.5 79.169,271.667 55.5,271.5C 55.5,324.833 55.5,378.167 55.5,431.5C 124.833,431.5 194.167,431.5 263.5,431.5C 263.333,403.831 263.5,376.165 264,348.5C 269,343.167 274,343.167 279,348.5C 279.5,376.165 279.667,403.831 279.5,431.5C 286.175,431.334 292.842,431.5 299.5,432C 301.333,432.5 302.5,433.667 303,435.5C 303.667,445.167 303.667,454.833 303,464.5C 298.833,480.667 288.667,490.833 272.5,495C 197.167,495.667 121.833,495.667 46.5,495C 30.3333,490.833 20.1667,480.667 16,464.5C 15.3333,454.833 15.3333,445.167 16,435.5C 16.5,433.667 17.6667,432.5 19.5,432C 26.1583,431.5 32.825,431.334 39.5,431.5C 39.3333,374.166 39.5,316.832 40,259.5C 40.6897,257.65 41.8564,256.316 43.5,255.5 Z M 97.5,348.5 C 94.4611,350.456 91.6278,352.79 89,355.5C 88.3333,357.833 88.3333,360.167 89,362.5C 94.7656,367.711 100.266,367.211 105.5,361C 102.934,356.684 100.267,352.517 97.5,348.5 Z M 187.5,361.5 C 183.732,364.225 179.732,366.725 175.5,369C 181.066,377.574 186.232,386.407 191,395.5C 192.214,397.049 193.714,398.215 195.5,399C 202.177,399.987 205.344,397.153 205,390.5C 199.644,380.438 193.81,370.771 187.5,361.5 Z M 31.5,447.5 C 116.833,447.5 202.167,447.5 287.5,447.5C 289.022,465.457 281.022,475.957 263.5,479C 258.177,479.499 252.844,479.666 247.5,479.5C 247.666,475.486 247.499,471.486 247,467.5C 245.471,464.484 242.971,463.151 239.5,463.5C 237.074,463.404 234.907,464.07 233,465.5C 231.621,470.036 231.121,474.703 231.5,479.5C 183.5,479.5 135.5,479.5 87.5,479.5C 87.6655,475.486 87.4988,471.486 87,467.5C 85.4714,464.484 82.9714,463.151 79.5,463.5C 77.0741,463.404 74.9074,464.07 73,465.5C 71.6211,470.036 71.1211,474.703 71.5,479.5C 61.4077,480.436 51.741,478.936 42.5,475C 34.0594,467.864 30.3928,458.697 31.5,447.5 Z"/></g>
<g><path style="opacity:0.982" fill="#fefffe" d="M 368.5,263.5 C 405.168,263.333 441.835,263.5 478.5,264C 486.667,266.833 492.167,272.333 495,280.5C 495.667,300.167 495.667,319.833 495,339.5C 493.471,342.516 490.971,343.849 487.5,343.5C 484.029,343.849 481.529,342.516 480,339.5C 479.667,322.167 479.333,304.833 479,287.5C 478.594,284.506 477.094,282.339 474.5,281C 441.561,279.355 408.561,279.021 375.5,280C 371,280.5 368.5,283 368,287.5C 367.333,319.5 367.333,351.5 368,383.5C 368.5,388 371,390.5 375.5,391C 407.5,391.667 439.5,391.667 471.5,391C 476,390.5 478.5,388 479,383.5C 479.07,376.061 479.737,368.728 481,361.5C 484.256,359.571 487.756,359.071 491.5,360C 493.333,360.5 494.5,361.667 495,363.5C 495.667,372.5 495.667,381.5 495,390.5C 492.167,398.667 486.667,404.167 478.5,407C 441.833,407.667 405.167,407.667 368.5,407C 360.333,404.167 354.833,398.667 352,390.5C 351.333,353.833 351.333,317.167 352,280.5C 355.019,272.316 360.519,266.649 368.5,263.5 Z"/></g>
<g><path style="opacity:0.931" fill="#fefffe" d="M 415.5,303.5 C 443.978,301.811 457.145,315.144 455,343.5C 448.645,362.438 435.478,370.272 415.5,367C 396.562,360.645 388.728,347.478 392,327.5C 395.349,314.985 403.182,306.985 415.5,303.5 Z M 418.5,320.5 C 435.765,320.257 441.598,328.257 436,344.5C 429.749,351.011 422.582,352.177 414.5,348C 407.989,341.749 406.823,334.582 411,326.5C 413.114,323.879 415.614,321.879 418.5,320.5 Z"/></g>
</svg>
