<?xml version="1.0" encoding="UTF-8"?>
<!DOCTYPE svg PUBLIC "-//W3C//DTD SVG 1.1//EN" "http://www.w3.org/Graphics/SVG/1.1/DTD/svg11.dtd">
<svg xmlns="http://www.w3.org/2000/svg" version="1.1" width="512px" height="512px" style="shape-rendering:geometricPrecision; text-rendering:geometricPrecision; image-rendering:optimizeQuality; fill-rule:evenodd; clip-rule:evenodd" xmlns:xlink="http://www.w3.org/1999/xlink">
<g><path style="opacity:0.997" fill="#a51c90" d="M 200.5,-0.5 C 203.5,-0.5 206.5,-0.5 209.5,-0.5C 209.369,0.238911 209.536,0.905578 210,1.5C 241.368,32.7013 272.535,64.0346 303.5,95.5C 295.167,95.5 286.833,95.5 278.5,95.5C 247.14,63.473 215.473,31.8063 183.5,0.5C 189.358,0.822197 195.025,0.488864 200.5,-0.5 Z"/></g>
<g><path style="opacity:0.997" fill="#9f1e96" d="M 209.5,-0.5 C 217.5,-0.5 225.5,-0.5 233.5,-0.5C 264.965,31.4654 296.632,63.2987 328.5,95C 330.058,95.21 331.391,95.71 332.5,96.5C 322.861,95.6401 313.194,95.3068 303.5,95.5C 272.535,64.0346 241.368,32.7013 210,1.5C 209.536,0.905578 209.369,0.238911 209.5,-0.5 Z"/></g>
<g><path style="opacity:1" fill="#981f9d" d="M 233.5,-0.5 C 243.167,-0.5 252.833,-0.5 262.5,-0.5C 298.132,35.632 333.965,71.632 370,107.5C 370.464,108.094 370.631,108.761 370.5,109.5C 358.697,102.787 346.03,98.454 332.5,96.5C 331.391,95.71 330.058,95.21 328.5,95C 296.632,63.2987 264.965,31.4654 233.5,-0.5 Z"/></g>
<g><path style="opacity:0.999" fill="#951fa0" d="M 262.5,-0.5 C 266.167,-0.5 269.833,-0.5 273.5,-0.5C 352.215,79.2155 431.549,158.216 511.5,236.5C 511.5,245.5 511.5,254.5 511.5,263.5C 478.5,230.833 445.5,198.167 412.5,165.5C 404.873,141.896 390.873,123.23 370.5,109.5C 370.631,108.761 370.464,108.094 370,107.5C 333.965,71.632 298.132,35.632 262.5,-0.5 Z"/></g>
<g><path style="opacity:0.998" fill="#911fa4" d="M 273.5,-0.5 C 278.167,-0.5 282.833,-0.5 287.5,-0.5C 361.549,74.5489 436.215,148.882 511.5,222.5C 511.5,227.167 511.5,231.833 511.5,236.5C 431.549,158.216 352.215,79.2155 273.5,-0.5 Z"/></g>
<g><path style="opacity:0.997" fill="#8e1fa6" d="M 287.5,-0.5 C 292.5,-0.5 297.5,-0.5 302.5,-0.5C 302.082,0.221579 301.416,0.721579 300.5,1C 370.701,71.368 441.035,141.535 511.5,211.5C 511.5,215.167 511.5,218.833 511.5,222.5C 436.215,148.882 361.549,74.5489 287.5,-0.5 Z"/></g>
<g><path style="opacity:0.998" fill="#8b20a9" d="M 302.5,-0.5 C 305.167,-0.5 307.833,-0.5 310.5,-0.5C 311.209,0.403972 312.209,0.737305 313.5,0.5C 378.833,66.5 444.5,132.167 510.5,197.5C 510.263,198.791 510.596,199.791 511.5,200.5C 511.5,204.167 511.5,207.833 511.5,211.5C 441.035,141.535 370.701,71.368 300.5,1C 301.416,0.721579 302.082,0.221579 302.5,-0.5 Z"/></g>
<g><path style="opacity:0.997" fill="#ab1b8a" d="M 183.5,0.5 C 215.473,31.8063 247.14,63.473 278.5,95.5C 270.167,95.5 261.833,95.5 253.5,95.5C 222.784,63.7833 191.45,32.7833 159.5,2.5C 167.335,1.61622 175.335,0.949549 183.5,0.5 Z"/></g>
<g><path style="opacity:0.997" fill="#8720ac" d="M 313.5,0.5 C 318.167,0.5 322.833,0.5 327.5,0.5C 387.416,61.9167 447.916,122.917 509,183.5C 509.232,184.737 509.732,185.737 510.5,186.5C 510.5,190.167 510.5,193.833 510.5,197.5C 444.5,132.167 378.833,66.5 313.5,0.5 Z"/></g>
<g><path style="opacity:0.998" fill="#8520af" d="M 327.5,0.5 C 331.179,0.724421 334.846,1.05775 338.5,1.5C 395.473,58.1395 452.473,114.806 509.5,171.5C 510.164,176.473 510.497,181.473 510.5,186.5C 509.732,185.737 509.232,184.737 509,183.5C 447.916,122.917 387.416,61.9167 327.5,0.5 Z"/></g>
<g><path style="opacity:0.995" fill="#8121b3" d="M 338.5,1.5 C 345.515,1.57816 352.515,1.91149 359.5,2.5C 408.549,52.5493 458.216,101.883 508.5,150.5C 508.999,157.49 509.332,164.49 509.5,171.5C 452.473,114.806 395.473,58.1395 338.5,1.5 Z"/></g>
<g><path style="opacity:0.997" fill="#b11b84" d="M 159.5,2.5 C 191.45,32.7833 222.784,63.7833 253.5,95.5C 243.833,95.5 234.167,95.5 224.5,95.5C 194.702,65.2013 164.702,35.0347 134.5,5C 135.056,4.61742 135.389,4.11742 135.5,3.5C 143.486,2.90097 151.486,2.56764 159.5,2.5 Z"/></g>
<g><path style="opacity:0.996" fill="#b71a7e" d="M 135.5,3.5 C 135.389,4.11742 135.056,4.61742 134.5,5C 164.702,35.0347 194.702,65.2013 224.5,95.5C 217.833,95.5 211.167,95.5 204.5,95.5C 174.833,65.5 145.167,35.5 115.5,5.5C 122.158,4.77347 128.825,4.1068 135.5,3.5 Z"/></g>
<g><path style="opacity:0.993" fill="#7b22b8" d="M 359.5,2.5 C 368.833,3.16667 378.167,3.83333 387.5,4.5C 426.549,44.5496 466.216,83.883 506.5,122.5C 507.072,131.842 507.739,141.175 508.5,150.5C 458.216,101.883 408.549,52.5493 359.5,2.5 Z"/></g>
<g><path style="opacity:0.997" fill="#bd1979" d="M 115.5,5.5 C 145.167,35.5 174.833,65.5 204.5,95.5C 195.779,95.2246 187.113,95.5579 178.5,96.5C 150.585,67.084 122.085,38.084 93,9.5C 92.5357,8.90558 92.369,8.23891 92.5,7.5C 100.16,6.76732 107.827,6.10066 115.5,5.5 Z"/></g>
<g><path style="opacity:0.993" fill="#7523be" d="M 387.5,4.5 C 396.851,5.38028 406.184,6.38028 415.5,7.5C 444.806,36.4728 474.14,65.4728 503.5,94.5C 504.5,103.838 505.5,113.172 506.5,122.5C 466.216,83.883 426.549,44.5496 387.5,4.5 Z"/></g>
<g><path style="opacity:0.998" fill="#c21b73" d="M 92.5,7.5 C 92.369,8.23891 92.5357,8.90558 93,9.5C 122.085,38.084 150.585,67.084 178.5,96.5C 169.127,97.4498 160.127,99.7832 151.5,103.5C 122.868,74.368 94.0349,45.368 65,16.5C 64.5357,15.9056 64.369,15.2389 64.5,14.5C 73.4292,10.6464 82.7625,8.31305 92.5,7.5 Z"/></g>
<g><path style="opacity:0.98" fill="#7023c3" d="M 415.5,7.5 C 459.454,11.9536 487.954,35.2869 501,77.5C 502.269,83.1113 503.102,88.7779 503.5,94.5C 474.14,65.4728 444.806,36.4728 415.5,7.5 Z"/></g>
<g><path style="opacity:0.999" fill="#c3226d" d="M 64.5,14.5 C 64.369,15.2389 64.5357,15.9056 65,16.5C 94.0349,45.368 122.868,74.368 151.5,103.5C 144.841,107.497 138.175,111.497 131.5,115.5C 101.917,87.4188 72.7507,58.7521 44,29.5C 43.5357,28.9056 43.369,28.2389 43.5,27.5C 49.6583,21.9151 56.6583,17.5818 64.5,14.5 Z"/></g>
<g><path style="opacity:0.997" fill="#c32969" d="M 43.5,27.5 C 43.369,28.2389 43.5357,28.9056 44,29.5C 72.7507,58.7521 101.917,87.4188 131.5,115.5C 125.833,120.5 120.5,125.833 115.5,131.5C 86.1395,101.806 56.8061,72.1398 27.5,42.5C 32.2244,36.7731 37.5578,31.7731 43.5,27.5 Z"/></g>
<g><path style="opacity:0.997" fill="#c42e64" d="M 27.5,42.5 C 56.8061,72.1398 86.1395,101.806 115.5,131.5C 111.462,137.557 107.795,143.891 104.5,150.5C 75.368,121.868 46.368,93.0349 17.5,64C 16.9056,63.5357 16.2389,63.369 15.5,63.5C 18.2238,55.7129 22.2238,48.7129 27.5,42.5 Z"/></g>
<g><path style="opacity:0.997" fill="#c4355f" d="M 15.5,63.5 C 16.2389,63.369 16.9056,63.5357 17.5,64C 46.368,93.0349 75.368,121.868 104.5,150.5C 100.43,158.712 97.763,167.379 96.5,176.5C 67.084,148.585 38.084,120.085 9.5,91C 8.90558,90.5357 8.23891,90.369 7.5,90.5C 8.58061,80.9343 11.2473,71.9343 15.5,63.5 Z"/></g>
<g><path style="opacity:0.997" fill="#c53b59" d="M 7.5,90.5 C 8.23891,90.369 8.90558,90.5357 9.5,91C 38.084,120.085 67.084,148.585 96.5,176.5C 95.5478,186.782 95.2145,197.115 95.5,207.5C 65.5,177.833 35.5,148.167 5.5,118.5C 6.03436,109.157 6.70103,99.8232 7.5,90.5 Z"/></g>
<g><path style="opacity:1" fill="#fefefe" d="M 204.5,95.5 C 211.167,95.5 217.833,95.5 224.5,95.5C 234.167,95.5 243.833,95.5 253.5,95.5C 261.833,95.5 270.167,95.5 278.5,95.5C 286.833,95.5 295.167,95.5 303.5,95.5C 313.194,95.3068 322.861,95.6401 332.5,96.5C 346.03,98.454 358.697,102.787 370.5,109.5C 390.873,123.23 404.873,141.896 412.5,165.5C 413.392,171.188 414.392,176.854 415.5,182.5C 415.5,190.833 415.5,199.167 415.5,207.5C 415.5,215.833 415.5,224.167 415.5,232.5C 415.5,240.833 415.5,249.167 415.5,257.5C 415.5,267.167 415.5,276.833 415.5,286.5C 415.5,293.167 415.5,299.833 415.5,306.5C 415.566,315.852 415.232,325.185 414.5,334.5C 412.635,342.957 410.302,351.291 407.5,359.5C 403.503,366.159 399.503,372.825 395.5,379.5C 390.5,385.167 385.167,390.5 379.5,395.5C 373.358,399.408 367.024,403.074 360.5,406.5C 351.591,410.58 342.258,413.247 332.5,414.5C 322.886,415.449 313.219,415.782 303.5,415.5C 293.833,415.5 284.167,415.5 274.5,415.5C 264.5,415.5 254.5,415.5 244.5,415.5C 235.833,415.5 227.167,415.5 218.5,415.5C 211.167,415.5 203.833,415.5 196.5,415.5C 190.833,415.5 185.167,415.5 179.5,415.5C 171.733,413.975 164.066,411.975 156.5,409.5C 130.5,398.833 112.167,380.5 101.5,354.5C 98.8515,346.544 96.8515,338.544 95.5,330.5C 95.5,325.167 95.5,319.833 95.5,314.5C 95.5,307.167 95.5,299.833 95.5,292.5C 95.5,283.833 95.5,275.167 95.5,266.5C 95.5,256.5 95.5,246.5 95.5,236.5C 95.5,226.833 95.5,217.167 95.5,207.5C 95.2145,197.115 95.5478,186.782 96.5,176.5C 97.763,167.379 100.43,158.712 104.5,150.5C 107.795,143.891 111.462,137.557 115.5,131.5C 120.5,125.833 125.833,120.5 131.5,115.5C 138.175,111.497 144.841,107.497 151.5,103.5C 160.127,99.7832 169.127,97.4498 178.5,96.5C 187.113,95.5579 195.779,95.2246 204.5,95.5 Z"/></g>
<g><path style="opacity:0.997" fill="#c54155" d="M 5.5,118.5 C 35.5,148.167 65.5,177.833 95.5,207.5C 95.5,217.167 95.5,226.833 95.5,236.5C 65.0347,206.535 34.7013,176.368 4.5,146C 3.90558,145.536 3.23891,145.369 2.5,145.5C 3.3582,136.486 4.3582,127.486 5.5,118.5 Z"/></g>
<g><path style="opacity:1" fill="#c21b73" d="M 180.5,128.5 C 180.833,128.5 181.167,128.5 181.5,128.5C 191.833,128.5 202.167,128.5 212.5,128.5C 226.833,143.167 241.167,157.833 255.5,172.5C 245.577,172.774 235.91,174.441 226.5,177.5C 210.368,161.868 194.368,146.035 178.5,130C 179.416,129.722 180.082,129.222 180.5,128.5 Z"/></g>
<g><path style="opacity:1" fill="#bd1a79" d="M 212.5,128.5 C 221.173,128.334 229.84,128.5 238.5,129C 255.088,145.085 271.088,161.585 286.5,178.5C 276.444,175.069 266.111,173.069 255.5,172.5C 241.167,157.833 226.833,143.167 212.5,128.5 Z"/></g>
<g><path style="opacity:1" fill="#b92282" d="M 181.5,128.5 C 230.167,127.167 278.833,127.167 327.5,128.5C 322.5,128.5 317.5,128.5 312.5,128.5C 304.167,128.5 295.833,128.5 287.5,128.5C 277.828,128.334 268.161,128.5 258.5,129C 299.667,170.167 340.833,211.333 382,252.5C 382.5,242.839 382.666,233.172 382.5,223.5C 382.5,215.167 382.5,206.833 382.5,198.5C 382.5,193.167 382.5,187.833 382.5,182.5C 383.833,230.5 383.833,278.5 382.5,326.5C 382.5,317.167 382.5,307.833 382.5,298.5C 382.666,289.827 382.5,281.16 382,272.5C 365.634,255.622 349.134,239.622 332.5,224.5C 322.833,203.5 307.5,188.167 286.5,178.5C 271.088,161.585 255.088,145.085 238.5,129C 229.84,128.5 221.173,128.334 212.5,128.5C 202.167,128.5 191.833,128.5 181.5,128.5 Z"/></g>
<g><path style="opacity:1" fill="#b21b83" d="M 287.5,128.5 C 298.5,139.833 309.5,151.167 320.5,162.5C 315.434,179.038 321.267,189.372 338,193.5C 342.003,193.041 345.836,192.041 349.5,190.5C 360.167,201.833 371.167,212.833 382.5,223.5C 382.666,233.172 382.5,242.839 382,252.5C 340.833,211.333 299.667,170.167 258.5,129C 268.161,128.5 277.828,128.334 287.5,128.5 Z"/></g>
<g><path style="opacity:1" fill="#ab1c8b" d="M 287.5,128.5 C 295.833,128.5 304.167,128.5 312.5,128.5C 320.167,136.5 327.833,144.5 335.5,152.5C 329.295,154.097 324.295,157.431 320.5,162.5C 309.5,151.167 298.5,139.833 287.5,128.5 Z"/></g>
<g><path style="opacity:1" fill="#a52092" d="M 312.5,128.5 C 317.5,128.5 322.5,128.5 327.5,128.5C 351.688,132.182 368.855,145.182 379,167.5C 380.958,172.329 382.124,177.329 382.5,182.5C 382.5,187.833 382.5,193.167 382.5,198.5C 374.5,191.167 366.833,183.5 359.5,175.5C 358.689,160.356 350.689,152.689 335.5,152.5C 327.833,144.5 320.167,136.5 312.5,128.5 Z"/></g>
<g><path style="opacity:1" fill="#c3236e" d="M 180.5,128.5 C 180.082,129.222 179.416,129.722 178.5,130C 194.368,146.035 210.368,161.868 226.5,177.5C 218.886,180.974 211.553,184.974 204.5,189.5C 187.5,173.167 170.833,156.5 154.5,139.5C 162.17,133.67 170.837,130.003 180.5,128.5 Z"/></g>
<g><path style="opacity:1" fill="#c32969" d="M 154.5,139.5 C 170.833,156.5 187.5,173.167 204.5,189.5C 199.833,194.5 195.167,199.5 190.5,204.5C 172.884,188.552 155.884,171.885 139.5,154.5C 143.5,148.5 148.5,143.5 154.5,139.5 Z"/></g>
<g><path style="opacity:1" fill="#fefcfd" d="M 335.5,152.5 C 350.689,152.689 358.689,160.356 359.5,175.5C 357.918,181.663 354.585,186.663 349.5,190.5C 345.836,192.041 342.003,193.041 338,193.5C 321.267,189.372 315.434,179.038 320.5,162.5C 324.295,157.431 329.295,154.097 335.5,152.5 Z"/></g>
<g><path style="opacity:0.997" fill="#c64750" d="M 2.5,145.5 C 3.23891,145.369 3.90558,145.536 4.5,146C 34.7013,176.368 65.0347,206.535 95.5,236.5C 95.5,246.5 95.5,256.5 95.5,266.5C 64.1667,235.5 32.8333,204.5 1.5,173.5C 1.83333,164.167 2.16667,154.833 2.5,145.5 Z"/></g>
<g><path style="opacity:0.999" fill="#9a1e9a" d="M 412.5,165.5 C 445.5,198.167 478.5,230.833 511.5,263.5C 511.5,268.167 511.5,272.833 511.5,277.5C 479.5,245.833 447.5,214.167 415.5,182.5C 414.392,176.854 413.392,171.188 412.5,165.5 Z"/></g>
<g><path style="opacity:1" fill="#c43064" d="M 139.5,154.5 C 155.884,171.885 172.884,188.552 190.5,204.5C 185.494,210.503 181.494,217.17 178.5,224.5C 162.167,208.5 145.833,192.5 129.5,176.5C 131.238,168.363 134.571,161.03 139.5,154.5 Z"/></g>
<g><path style="opacity:1" fill="#fefdfd" d="M 255.5,172.5 C 266.111,173.069 276.444,175.069 286.5,178.5C 307.5,188.167 322.833,203.5 332.5,224.5C 335.931,234.558 337.931,244.891 338.5,255.5C 338.107,265.07 336.44,274.404 333.5,283.5C 330.561,291.375 326.561,298.708 321.5,305.5C 316.528,310.807 311.528,316.14 306.5,321.5C 300.115,325.692 293.448,329.359 286.5,332.5C 277.068,335.608 267.402,337.608 257.5,338.5C 244.987,338.704 232.987,336.371 221.5,331.5C 203.666,322.42 189.999,309.087 180.5,291.5C 175.686,279.284 173.02,266.618 172.5,253.5C 172.763,243.453 174.763,233.787 178.5,224.5C 181.494,217.17 185.494,210.503 190.5,204.5C 195.167,199.5 199.833,194.5 204.5,189.5C 211.553,184.974 218.886,180.974 226.5,177.5C 235.91,174.441 245.577,172.774 255.5,172.5 Z"/></g>
<g><path style="opacity:1" fill="#c4355f" d="M 129.5,176.5 C 145.833,192.5 162.167,208.5 178.5,224.5C 174.763,233.787 172.763,243.453 172.5,253.5C 157.833,239.167 143.167,224.833 128.5,210.5C 128.5,200.833 128.5,191.167 128.5,181.5C 128.216,179.585 128.549,177.919 129.5,176.5 Z"/></g>
<g><path style="opacity:1" fill="#ab1c8b" d="M 359.5,175.5 C 366.833,183.5 374.5,191.167 382.5,198.5C 382.5,206.833 382.5,215.167 382.5,223.5C 371.167,212.833 360.167,201.833 349.5,190.5C 354.585,186.663 357.918,181.663 359.5,175.5 Z"/></g>
<g><path style="opacity:0.996" fill="#9f1d96" d="M 415.5,182.5 C 447.5,214.167 479.5,245.833 511.5,277.5C 511.5,285.5 511.5,293.5 511.5,301.5C 510.761,301.631 510.094,301.464 509.5,301C 478.299,269.632 446.965,238.465 415.5,207.5C 415.5,199.167 415.5,190.833 415.5,182.5 Z"/></g>
<g><path style="opacity:0.998" fill="#c74e4c" d="M 1.5,173.5 C 32.8333,204.5 64.1667,235.5 95.5,266.5C 95.5,275.167 95.5,283.833 95.5,292.5C 63.8333,261.167 32.1667,229.833 0.5,198.5C 0.259551,190.125 0.592884,181.792 1.5,173.5 Z"/></g>
<g><path style="opacity:0.997" fill="#c9544b" d="M 0.5,198.5 C 32.1667,229.833 63.8333,261.167 95.5,292.5C 95.5,299.833 95.5,307.167 95.5,314.5C 64.0346,283.535 32.7013,252.368 1.5,221C 0.905578,220.536 0.238911,220.369 -0.5,220.5C -0.5,213.5 -0.5,206.5 -0.5,199.5C 0.166667,199.5 0.5,199.167 0.5,198.5 Z"/></g>
<g><path style="opacity:1" fill="#c3266e" d="M 260.5,205.5 C 257.15,205.335 253.817,205.502 250.5,206C 268.667,224.167 286.833,242.333 305,260.5C 305.499,256.514 305.666,252.514 305.5,248.5C 307.327,262.38 303.993,275.047 295.5,286.5C 272.194,262.86 248.861,239.194 225.5,215.5C 235.74,206.861 247.406,203.528 260.5,205.5 Z"/></g>
<g><path style="opacity:1" fill="#c32073" d="M 260.5,205.5 C 285.597,209.264 300.597,223.597 305.5,248.5C 305.666,252.514 305.499,256.514 305,260.5C 286.833,242.333 268.667,224.167 250.5,206C 253.817,205.502 257.15,205.335 260.5,205.5 Z"/></g>
<g><path style="opacity:0.998" fill="#a51c90" d="M 415.5,207.5 C 446.965,238.465 478.299,269.632 509.5,301C 510.094,301.464 510.761,301.631 511.5,301.5C 511.5,304.5 511.5,307.5 511.5,310.5C 510.511,315.975 510.178,321.642 510.5,327.5C 479.194,295.527 447.527,263.86 415.5,232.5C 415.5,224.167 415.5,215.833 415.5,207.5 Z"/></g>
<g><path style="opacity:1" fill="#c53c5a" d="M 128.5,210.5 C 143.167,224.833 157.833,239.167 172.5,253.5C 173.02,266.618 175.686,279.284 180.5,291.5C 162.918,275.421 145.752,258.754 129,241.5C 128.5,231.172 128.334,220.839 128.5,210.5 Z"/></g>
<g><path style="opacity:1" fill="#c32968" d="M 225.5,215.5 C 248.861,239.194 272.194,262.86 295.5,286.5C 291.742,291.594 287.075,295.594 281.5,298.5C 281.631,297.761 281.464,297.094 281,296.5C 258.298,273.965 235.798,251.299 213.5,228.5C 216.113,222.887 220.113,218.554 225.5,215.5 Z"/></g>
<g><path style="opacity:0.998" fill="#cb5b49" d="M -0.5,220.5 C 0.238911,220.369 0.905578,220.536 1.5,221C 32.7013,252.368 64.0346,283.535 95.5,314.5C 95.5,319.833 95.5,325.167 95.5,330.5C 95.5654,330.938 95.3988,331.272 95,331.5C 63.2987,299.632 31.4654,267.965 -0.5,236.5C -0.5,231.167 -0.5,225.833 -0.5,220.5 Z"/></g>
<g><path style="opacity:1" fill="#c42f64" d="M 213.5,228.5 C 235.798,251.299 258.298,273.965 281,296.5C 281.464,297.094 281.631,297.761 281.5,298.5C 274.696,303.388 267.029,305.721 258.5,305.5C 241.202,287.701 223.702,270.035 206,252.5C 205.51,251.207 205.343,249.873 205.5,248.5C 206.033,240.886 208.7,234.219 213.5,228.5 Z"/></g>
<g><path style="opacity:1" fill="#bd1a79" d="M 382.5,298.5 C 367.833,284.167 353.167,269.833 338.5,255.5C 337.931,244.891 335.931,234.558 332.5,224.5C 349.134,239.622 365.634,255.622 382,272.5C 382.5,281.16 382.666,289.827 382.5,298.5 Z"/></g>
<g><path style="opacity:0.998" fill="#ab1b8a" d="M 415.5,232.5 C 447.527,263.86 479.194,295.527 510.5,327.5C 510.101,335.67 509.435,343.67 508.5,351.5C 478.217,319.55 447.217,288.216 415.5,257.5C 415.5,249.167 415.5,240.833 415.5,232.5 Z"/></g>
<g><path style="opacity:1" fill="#cd6049" d="M -0.5,236.5 C 31.4654,267.965 63.2987,299.632 95,331.5C 95.3988,331.272 95.5654,330.938 95.5,330.5C 96.8515,338.544 98.8515,346.544 101.5,354.5C 101.631,355.239 101.464,355.906 101,356.5C 67.2987,322.632 33.4654,288.965 -0.5,255.5C -0.5,249.167 -0.5,242.833 -0.5,236.5 Z"/></g>
<g><path style="opacity:1" fill="#c74558" d="M 128.5,181.5 C 128.5,191.167 128.5,200.833 128.5,210.5C 128.334,220.839 128.5,231.172 129,241.5C 145.752,258.754 162.918,275.421 180.5,291.5C 189.999,309.087 203.666,322.42 221.5,331.5C 220.475,331.897 220.308,332.563 221,333.5C 237.167,349.667 253.333,365.833 269.5,382C 279.828,382.5 290.161,382.666 300.5,382.5C 309.5,382.5 318.5,382.5 327.5,382.5C 279.5,383.833 231.5,383.833 183.5,382.5C 183.833,382.5 184.167,382.5 184.5,382.5C 193.167,382.5 201.833,382.5 210.5,382.5C 220.506,382.666 230.506,382.5 240.5,382C 203.333,344.833 166.167,307.667 129,270.5C 128.5,280.494 128.334,290.494 128.5,300.5C 128.5,309.167 128.5,317.833 128.5,326.5C 128.5,326.833 128.5,327.167 128.5,327.5C 127.167,278.833 127.167,230.167 128.5,181.5 Z"/></g>
<g><path style="opacity:1" fill="#c53762" d="M 205.5,248.5 C 205.343,249.873 205.51,251.207 206,252.5C 223.702,270.035 241.202,287.701 258.5,305.5C 225.689,304.359 207.689,287.359 204.5,254.5C 204.505,252.304 204.838,250.304 205.5,248.5 Z"/></g>
<g><path style="opacity:0.999" fill="#cf6747" d="M -0.5,255.5 C 33.4654,288.965 67.2987,322.632 101,356.5C 101.464,355.906 101.631,355.239 101.5,354.5C 112.167,380.5 130.5,398.833 156.5,409.5C 155.761,409.369 155.094,409.536 154.5,410C 188.368,443.701 222.035,477.535 255.5,511.5C 247.833,511.5 240.167,511.5 232.5,511.5C 155.167,433.5 77.5,355.833 -0.5,278.5C -0.5,270.833 -0.5,263.167 -0.5,255.5 Z"/></g>
<g><path style="opacity:0.997" fill="#b11b84" d="M 415.5,257.5 C 447.217,288.216 478.217,319.55 508.5,351.5C 508.388,359.844 508.055,368.178 507.5,376.5C 506.761,376.631 506.094,376.464 505.5,376C 475.632,345.965 445.632,316.132 415.5,286.5C 415.5,276.833 415.5,267.167 415.5,257.5 Z"/></g>
<g><path style="opacity:1" fill="#c21c73" d="M 338.5,255.5 C 353.167,269.833 367.833,284.167 382.5,298.5C 382.5,307.833 382.5,317.167 382.5,326.5C 382.5,328.167 382.5,329.833 382.5,331.5C 381.883,331.611 381.383,331.944 381,332.5C 364.579,316.581 348.746,300.248 333.5,283.5C 336.44,274.404 338.107,265.07 338.5,255.5 Z"/></g>
<g><path style="opacity:0.997" fill="#d16d46" d="M -0.5,278.5 C 77.5,355.833 155.167,433.5 232.5,511.5C 226.167,511.5 219.833,511.5 213.5,511.5C 142.5,439.833 71.1667,368.5 -0.5,297.5C -0.5,291.167 -0.5,284.833 -0.5,278.5 Z"/></g>
<g><path style="opacity:1" fill="#c64750" d="M 210.5,382.5 C 183.5,354.833 156.167,327.5 128.5,300.5C 128.334,290.494 128.5,280.494 129,270.5C 166.167,307.667 203.333,344.833 240.5,382C 230.506,382.5 220.506,382.666 210.5,382.5 Z"/></g>
<g><path style="opacity:0.997" fill="#b71a7e" d="M 415.5,286.5 C 445.632,316.132 475.632,345.965 505.5,376C 506.094,376.464 506.761,376.631 507.5,376.5C 506.833,382.833 506.167,389.167 505.5,395.5C 475.5,365.833 445.5,336.167 415.5,306.5C 415.5,299.833 415.5,293.167 415.5,286.5 Z"/></g>
<g><path style="opacity:1" fill="#c3236e" d="M 333.5,283.5 C 348.746,300.248 364.579,316.581 381,332.5C 381.383,331.944 381.883,331.611 382.5,331.5C 380.559,340.681 376.892,349.014 371.5,356.5C 354.115,340.116 337.448,323.116 321.5,305.5C 326.561,298.708 330.561,291.375 333.5,283.5 Z"/></g>
<g><path style="opacity:0.998" fill="#d37345" d="M -0.5,297.5 C 71.1667,368.5 142.5,439.833 213.5,511.5C 209.167,511.5 204.833,511.5 200.5,511.5C 198.735,510.539 196.735,510.205 194.5,510.5C 129.806,445.473 65.1396,380.473 0.5,315.5C 0.767809,313.901 0.434475,312.568 -0.5,311.5C -0.5,306.833 -0.5,302.167 -0.5,297.5 Z"/></g>
<g><path style="opacity:1" fill="#c32969" d="M 321.5,305.5 C 337.448,323.116 354.115,340.116 371.5,356.5C 367.5,362.5 362.5,367.5 356.5,371.5C 339.5,355.167 322.833,338.5 306.5,321.5C 311.528,316.14 316.528,310.807 321.5,305.5 Z"/></g>
<g><path style="opacity:0.998" fill="#bd1a79" d="M 415.5,306.5 C 445.5,336.167 475.5,365.833 505.5,395.5C 505.031,402.523 504.364,409.523 503.5,416.5C 502.778,416.918 502.278,417.584 502,418.5C 473.333,389.833 444.667,361.167 416,332.5C 415.722,333.416 415.222,334.082 414.5,334.5C 415.232,325.185 415.566,315.852 415.5,306.5 Z"/></g>
<g><path style="opacity:1" fill="#c74e4c" d="M 128.5,300.5 C 156.167,327.5 183.5,354.833 210.5,382.5C 201.833,382.5 193.167,382.5 184.5,382.5C 166.167,363.5 147.5,344.833 128.5,326.5C 128.5,317.833 128.5,309.167 128.5,300.5 Z"/></g>
<g><path style="opacity:0.997" fill="#d57943" d="M 0.5,315.5 C 65.1396,380.473 129.806,445.473 194.5,510.5C 187.138,510.635 179.804,510.302 172.5,509.5C 115.833,452.167 58.8333,395.167 1.5,338.5C 0.64227,330.868 0.308936,323.201 0.5,315.5 Z"/></g>
<g><path style="opacity:1" fill="#ca564d" d="M 128.5,326.5 C 147.5,344.833 166.167,363.5 184.5,382.5C 184.167,382.5 183.833,382.5 183.5,382.5C 155.991,378.495 138.157,363.162 130,336.5C 129.047,333.568 128.547,330.568 128.5,327.5C 128.5,327.167 128.5,326.833 128.5,326.5 Z"/></g>
<g><path style="opacity:1" fill="#c43063" d="M 306.5,321.5 C 322.833,338.5 339.5,355.167 356.5,371.5C 349.981,376.423 342.648,379.756 334.5,381.5C 318.5,365.167 302.5,348.833 286.5,332.5C 293.448,329.359 300.115,325.692 306.5,321.5 Z"/></g>
<g><path style="opacity:1" fill="#c53b59" d="M 221.5,331.5 C 232.987,336.371 244.987,338.704 257.5,338.5C 271.833,353.167 286.167,367.833 300.5,382.5C 290.161,382.666 279.828,382.5 269.5,382C 253.333,365.833 237.167,349.667 221,333.5C 220.308,332.563 220.475,331.897 221.5,331.5 Z"/></g>
<g><path style="opacity:1" fill="#c5355f" d="M 286.5,332.5 C 302.5,348.833 318.5,365.167 334.5,381.5C 332.283,382.369 329.95,382.702 327.5,382.5C 318.5,382.5 309.5,382.5 300.5,382.5C 286.167,367.833 271.833,353.167 257.5,338.5C 267.402,337.608 277.068,335.608 286.5,332.5 Z"/></g>
<g><path style="opacity:0.998" fill="#c21c73" d="M 503.5,416.5 C 502.736,426.888 500.403,436.888 496.5,446.5C 495.761,446.631 495.094,446.464 494.5,446C 465.632,416.965 436.632,388.132 407.5,359.5C 410.302,351.291 412.635,342.957 414.5,334.5C 415.222,334.082 415.722,333.416 416,332.5C 444.667,361.167 473.333,389.833 502,418.5C 502.278,417.584 502.778,416.918 503.5,416.5 Z"/></g>
<g><path style="opacity:0.995" fill="#d77f42" d="M 1.5,338.5 C 58.8333,395.167 115.833,452.167 172.5,509.5C 164.825,509.32 157.158,508.986 149.5,508.5C 100.167,459.833 51.1667,410.833 2.5,361.5C 1.92954,353.846 1.59621,346.179 1.5,338.5 Z"/></g>
<g><path style="opacity:0.998" fill="#c3226d" d="M 407.5,359.5 C 436.632,388.132 465.632,416.965 494.5,446C 495.094,446.464 495.761,446.631 496.5,446.5C 493.418,454.342 489.085,461.342 483.5,467.5C 453.917,439.419 424.751,410.752 396,381.5C 395.536,380.906 395.369,380.239 395.5,379.5C 399.503,372.825 403.503,366.159 407.5,359.5 Z"/></g>
<g><path style="opacity:0.996" fill="#d98641" d="M 2.5,361.5 C 51.1667,410.833 100.167,459.833 149.5,508.5C 142.159,507.884 134.826,507.217 127.5,506.5C 86.8333,465.167 45.8333,424.167 4.5,383.5C 3.73912,376.183 3.07246,368.85 2.5,361.5 Z"/></g>
<g><path style="opacity:0.997" fill="#c32869" d="M 395.5,379.5 C 395.369,380.239 395.536,380.906 396,381.5C 424.751,410.752 453.917,439.419 483.5,467.5C 479.167,473.833 473.833,479.167 467.5,483.5C 438.5,453.833 409.167,424.5 379.5,395.5C 385.167,390.5 390.5,385.167 395.5,379.5 Z"/></g>
<g><path style="opacity:0.994" fill="#db8c3f" d="M 4.5,383.5 C 45.8333,424.167 86.8333,465.167 127.5,506.5C 119.807,506.073 112.141,505.407 104.5,504.5C 104.631,503.761 104.464,503.094 104,502.5C 71.2714,469.938 38.7714,437.272 6.5,404.5C 5.47454,397.554 4.80788,390.554 4.5,383.5 Z"/></g>
<g><path style="opacity:0.997" fill="#c42e64" d="M 379.5,395.5 C 409.167,424.5 438.5,453.833 467.5,483.5C 462.048,488.736 455.714,492.736 448.5,495.5C 419.167,465.833 389.833,436.167 360.5,406.5C 367.024,403.074 373.358,399.408 379.5,395.5 Z"/></g>
<g><path style="opacity:0.994" fill="#dd923e" d="M 6.5,404.5 C 38.7714,437.272 71.2714,469.938 104,502.5C 104.464,503.094 104.631,503.761 104.5,504.5C 96.9413,504.149 89.608,503.149 82.5,501.5C 59.3743,476.867 35.3743,452.367 10.5,428C 9.90558,427.536 9.23891,427.369 8.5,427.5C 7.63533,419.853 6.96867,412.186 6.5,404.5 Z"/></g>
<g><path style="opacity:0.997" fill="#c4355f" d="M 360.5,406.5 C 389.833,436.167 419.167,465.833 448.5,495.5C 440.271,499.391 431.605,501.724 422.5,502.5C 421.761,502.631 421.094,502.464 420.5,502C 391.272,472.605 361.938,443.438 332.5,414.5C 342.258,413.247 351.591,410.58 360.5,406.5 Z"/></g>
<g><path style="opacity:1" fill="#cd6048" d="M 156.5,409.5 C 164.066,411.975 171.733,413.975 179.5,415.5C 210.632,447.132 241.965,478.632 273.5,510C 272.944,510.383 272.611,510.883 272.5,511.5C 266.833,511.5 261.167,511.5 255.5,511.5C 222.035,477.535 188.368,443.701 154.5,410C 155.094,409.536 155.761,409.369 156.5,409.5 Z"/></g>
<g><path style="opacity:0.997" fill="#cb5b49" d="M 179.5,415.5 C 185.167,415.5 190.833,415.5 196.5,415.5C 228.167,447.5 259.833,479.5 291.5,511.5C 285.167,511.5 278.833,511.5 272.5,511.5C 272.611,510.883 272.944,510.383 273.5,510C 241.965,478.632 210.632,447.132 179.5,415.5 Z"/></g>
<g><path style="opacity:0.996" fill="#c9544b" d="M 196.5,415.5 C 203.833,415.5 211.167,415.5 218.5,415.5C 249.132,446.632 279.965,477.632 311,508.5C 311.464,509.094 311.631,509.761 311.5,510.5C 310.833,510.5 310.5,510.833 310.5,511.5C 304.167,511.5 297.833,511.5 291.5,511.5C 259.833,479.5 228.167,447.5 196.5,415.5 Z"/></g>
<g><path style="opacity:0.999" fill="#c74d4d" d="M 218.5,415.5 C 227.167,415.5 235.833,415.5 244.5,415.5C 275.5,446.833 306.5,478.167 337.5,509.5C 328.867,510.377 320.2,510.711 311.5,510.5C 311.631,509.761 311.464,509.094 311,508.5C 279.965,477.632 249.132,446.632 218.5,415.5 Z"/></g>
<g><path style="opacity:0.998" fill="#c64750" d="M 244.5,415.5 C 254.5,415.5 264.5,415.5 274.5,415.5C 304.465,445.965 334.632,476.299 365,506.5C 365.464,507.094 365.631,507.761 365.5,508.5C 356.167,508.833 346.833,509.167 337.5,509.5C 306.5,478.167 275.5,446.833 244.5,415.5 Z"/></g>
<g><path style="opacity:0.997" fill="#c64155" d="M 274.5,415.5 C 284.167,415.5 293.833,415.5 303.5,415.5C 333.167,445.5 362.833,475.5 392.5,505.5C 383.514,506.642 374.514,507.642 365.5,508.5C 365.631,507.761 365.464,507.094 365,506.5C 334.632,476.299 304.465,445.965 274.5,415.5 Z"/></g>
<g><path style="opacity:0.996" fill="#c53b59" d="M 332.5,414.5 C 361.938,443.438 391.272,472.605 420.5,502C 421.094,502.464 421.761,502.631 422.5,502.5C 412.714,504.209 402.714,505.209 392.5,505.5C 362.833,475.5 333.167,445.5 303.5,415.5C 313.219,415.782 322.886,415.449 332.5,414.5 Z"/></g>
<g><path style="opacity:0.974" fill="#df983d" d="M 8.5,427.5 C 9.23891,427.369 9.90558,427.536 10.5,428C 35.3743,452.367 59.3743,476.867 82.5,501.5C 49.9342,494.77 27.1009,476.103 14,445.5C 11.8496,439.552 10.0163,433.552 8.5,427.5 Z"/></g>
</svg>
