<?xml version="1.0" encoding="UTF-8"?>
<!DOCTYPE svg PUBLIC "-//W3C//DTD SVG 1.1//EN" "http://www.w3.org/Graphics/SVG/1.1/DTD/svg11.dtd">
<svg xmlns="http://www.w3.org/2000/svg" version="1.1" width="512px" height="512px" style="shape-rendering:geometricPrecision; text-rendering:geometricPrecision; image-rendering:optimizeQuality; fill-rule:evenodd; clip-rule:evenodd" xmlns:xlink="http://www.w3.org/1999/xlink">
<g><path style="opacity:0.907" fill="#fefffe" d="M 172.5,50.5 C 227.834,50.3333 283.168,50.5 338.5,51C 339,51.5 339.5,52 340,52.5C 340.5,60.4931 340.666,68.4931 340.5,76.5C 372.835,76.3334 405.168,76.5 437.5,77C 439.329,77.2735 440.829,78.1068 442,79.5C 442.5,153.833 442.667,228.166 442.5,302.5C 446.846,302.334 451.179,302.501 455.5,303C 457.329,303.273 458.829,304.107 460,305.5C 460.667,323.833 460.667,342.167 460,360.5C 459.25,361.126 458.416,361.626 457.5,362C 436.167,362.333 414.833,362.667 393.5,363C 403.359,393.578 413.026,424.245 422.5,455C 422.01,456.982 421.01,458.649 419.5,460C 403.5,460.667 387.5,460.667 371.5,460C 370.692,459.692 370.025,459.192 369.5,458.5C 359.5,426.833 349.5,395.167 339.5,363.5C 283.504,362.5 227.504,362.167 171.5,362.5C 162.11,394.67 152.11,426.67 141.5,458.5C 140.975,459.192 140.308,459.692 139.5,460C 123.5,460.667 107.5,460.667 91.5,460C 89.9903,458.649 88.9903,456.982 88.5,455C 97.9356,424.424 107.602,393.924 117.5,363.5C 96.1745,362.667 74.8411,362.167 53.5,362C 52.6919,361.692 52.0253,361.192 51.5,360.5C 50.3468,342.21 50.1802,323.877 51,305.5C 52.1711,304.107 53.6711,303.273 55.5,303C 59.8206,302.501 64.1539,302.334 68.5,302.5C 68.3333,228.499 68.5,154.499 69,80.5C 69.6517,78.2769 71.1517,77.1102 73.5,77C 105.832,76.5 138.165,76.3334 170.5,76.5C 170.334,68.4931 170.5,60.4931 171,52.5C 171.717,51.9558 172.217,51.2891 172.5,50.5 Z M 181.5,61.5 C 230.833,61.5 280.167,61.5 329.5,61.5C 329.5,73.8333 329.5,86.1667 329.5,98.5C 280.167,98.5 230.833,98.5 181.5,98.5C 181.5,86.1667 181.5,73.8333 181.5,61.5 Z M 79.5,88.5 C 109.833,88.5 140.167,88.5 170.5,88.5C 170.334,94.5092 170.501,100.509 171,106.5C 171.5,107.667 172.333,108.5 173.5,109C 228.167,109.667 282.833,109.667 337.5,109C 338.667,108.5 339.5,107.667 340,106.5C 340.499,100.509 340.666,94.5092 340.5,88.5C 370.833,88.5 401.167,88.5 431.5,88.5C 431.5,159.833 431.5,231.167 431.5,302.5C 314.167,302.5 196.833,302.5 79.5,302.5C 79.5,231.167 79.5,159.833 79.5,88.5 Z M 248.5,141.5 C 291.235,142.068 315.235,163.568 320.5,206C 317.543,240.619 299.209,261.953 265.5,270C 236.412,273.094 214.246,262.261 199,237.5C 184.804,207.232 189.637,180.399 213.5,157C 223.817,148.623 235.483,143.456 248.5,141.5 Z M 254.5,174.5 C 255.496,174.414 256.329,174.748 257,175.5C 260.129,180.926 263.629,186.093 267.5,191C 274.032,192.546 280.365,194.546 286.5,197C 283.028,202.106 279.194,206.94 275,211.5C 274.661,218.928 274.494,226.262 274.5,233.5C 268.238,230.968 261.905,228.635 255.5,226.5C 249.095,228.635 242.762,230.968 236.5,233.5C 236.167,232.833 235.833,232.167 235.5,231.5C 236.591,224.864 236.757,218.198 236,211.5C 231.806,206.94 227.972,202.106 224.5,197C 230.635,194.546 236.968,192.546 243.5,191C 247.549,185.729 251.216,180.229 254.5,174.5 Z M 61.5,314.5 C 190.833,314.5 320.167,314.5 449.5,314.5C 449.5,326.833 449.5,339.167 449.5,351.5C 320.167,351.5 190.833,351.5 61.5,351.5C 61.5,339.167 61.5,326.833 61.5,314.5 Z M 129.5,362.5 C 139.5,362.5 149.5,362.5 159.5,362.5C 150.774,391.178 141.941,419.845 133,448.5C 122.894,449.818 112.728,449.818 102.5,448.5C 111.504,419.821 120.504,391.154 129.5,362.5 Z M 351.5,362.5 C 361.749,362.181 371.916,362.514 382,363.5C 390.941,392.155 399.774,420.822 408.5,449.5C 398.251,449.819 388.084,449.486 378,448.5C 369.059,419.845 360.226,391.178 351.5,362.5 Z"/></g>
<g><path style="opacity:0.896" fill="#fefffe" d="M 245.5,130.5 C 289.826,128.682 317.992,149.016 330,191.5C 334.673,222.163 325.173,247.329 301.5,267C 270.833,287.667 240.167,287.667 209.5,267C 181.431,242.771 173.264,212.938 185,177.5C 197.139,151.363 217.305,135.697 245.5,130.5 Z M 248.5,141.5 C 235.483,143.456 223.817,148.623 213.5,157C 189.637,180.399 184.804,207.232 199,237.5C 214.246,262.261 236.412,273.094 265.5,270C 299.209,261.953 317.543,240.619 320.5,206C 315.235,163.568 291.235,142.068 248.5,141.5 Z M 254.5,174.5 C 251.216,180.229 247.549,185.729 243.5,191C 236.968,192.546 230.635,194.546 224.5,197C 227.972,202.106 231.806,206.94 236,211.5C 236.757,218.198 236.591,224.864 235.5,231.5C 235.833,232.167 236.167,232.833 236.5,233.5C 242.762,230.968 249.095,228.635 255.5,226.5C 261.905,228.635 268.238,230.968 274.5,233.5C 274.494,226.262 274.661,218.928 275,211.5C 279.194,206.94 283.028,202.106 286.5,197C 280.365,194.546 274.032,192.546 267.5,191C 263.629,186.093 260.129,180.926 257,175.5C 256.329,174.748 255.496,174.414 254.5,174.5 Z"/></g>
<g><path style="opacity:0.899" fill="#fefffe" d="M 252.5,157.5 C 255.97,156.875 258.804,157.875 261,160.5C 265.107,167.604 269.607,174.438 274.5,181C 283.823,183.454 292.99,186.287 302,189.5C 302.667,191.833 302.667,194.167 302,196.5C 296.667,203.167 291.333,209.833 286,216.5C 286.453,226.145 286.453,235.812 286,245.5C 283.503,247.478 280.669,247.978 277.5,247C 270.333,244.167 263.167,241.333 256,238.5C 248.422,241.137 240.922,243.97 233.5,247C 230.331,247.978 227.497,247.478 225,245.5C 224.547,235.812 224.547,226.145 225,216.5C 219.667,209.833 214.333,203.167 209,196.5C 208.333,194.167 208.333,191.833 209,189.5C 218.01,186.287 227.177,183.454 236.5,181C 241.967,173.225 247.3,165.391 252.5,157.5 Z M 254.5,174.5 C 251.216,180.229 247.549,185.729 243.5,191C 236.968,192.546 230.635,194.546 224.5,197C 227.972,202.106 231.806,206.94 236,211.5C 236.757,218.198 236.591,224.864 235.5,231.5C 235.833,232.167 236.167,232.833 236.5,233.5C 242.762,230.968 249.095,228.635 255.5,226.5C 261.905,228.635 268.238,230.968 274.5,233.5C 274.494,226.262 274.661,218.928 275,211.5C 279.194,206.94 283.028,202.106 286.5,197C 280.365,194.546 274.032,192.546 267.5,191C 263.629,186.093 260.129,180.926 257,175.5C 256.329,174.748 255.496,174.414 254.5,174.5 Z"/></g>
</svg>
