<?xml version="1.0" encoding="UTF-8"?>
<!DOCTYPE svg PUBLIC "-//W3C//DTD SVG 1.1//EN" "http://www.w3.org/Graphics/SVG/1.1/DTD/svg11.dtd">
<svg xmlns="http://www.w3.org/2000/svg" version="1.1" width="512px" height="512px" style="shape-rendering:geometricPrecision; text-rendering:geometricPrecision; image-rendering:optimizeQuality; fill-rule:evenodd; clip-rule:evenodd" xmlns:xlink="http://www.w3.org/1999/xlink">
<g><path style="opacity:0.95" fill="#fefffe" d="M 206.5,-0.5 C 224.5,-0.5 242.5,-0.5 260.5,-0.5C 261.793,1.29585 263.293,2.96252 265,4.5C 265.5,37.8317 265.667,71.165 265.5,104.5C 298.502,104.667 331.502,104.5 364.5,104C 374.682,86.638 384.349,68.9713 393.5,51C 384.058,26.4574 391.392,9.29071 415.5,-0.5C 420.833,-0.5 426.167,-0.5 431.5,-0.5C 453.985,8.13804 461.818,24.138 455,47.5C 448.772,60.8654 438.272,67.532 423.5,67.5C 419.01,67.454 414.677,66.954 410.5,66C 400.953,82.2583 391.786,98.7583 383,115.5C 381.439,118.783 379.273,121.617 376.5,124C 339.586,125.487 302.586,125.987 265.5,125.5C 265.5,131.167 265.5,136.833 265.5,142.5C 281.875,144.014 297.209,148.847 311.5,157C 347.833,157.667 384.167,157.667 420.5,157C 429,148.5 437.5,140 446,131.5C 445.981,128.756 445.314,126.089 444,123.5C 441.642,94.8593 454.808,80.6926 483.5,81C 497.829,84.1686 507.163,92.6686 511.5,106.5C 511.5,112.167 511.5,117.833 511.5,123.5C 502.055,146.469 485.555,153.803 462,145.5C 451.471,156.363 440.637,166.863 429.5,177C 399.548,178.302 369.548,178.969 339.5,179C 349.416,189.99 356.916,202.49 362,216.5C 363.379,224.463 360.046,229.13 352,230.5C 348.403,229.869 345.403,228.202 343,225.5C 326.57,185.683 296.736,164.683 253.5,162.5C 204.745,167.423 174.911,193.757 164,241.5C 159.737,282.471 174.904,313.971 209.5,336C 225.858,344.342 243.191,349.009 261.5,350C 263.049,351.214 264.215,352.714 265,354.5C 265.5,364.828 265.666,375.161 265.5,385.5C 302.919,385.013 340.253,385.513 377.5,387C 388.753,406.171 399.753,425.504 410.5,445C 426.982,440.271 440.815,444.438 452,457.5C 461.677,475.939 458.844,492.106 443.5,506C 439.525,508.146 435.525,509.98 431.5,511.5C 426.167,511.5 420.833,511.5 415.5,511.5C 398.935,506.262 390.269,494.929 389.5,477.5C 389.742,470.563 390.909,463.896 393,457.5C 383.579,440.994 374.413,424.327 365.5,407.5C 332.173,406.5 298.84,406.167 265.5,406.5C 265.667,439.835 265.5,473.168 265,506.5C 263.634,508.362 262.134,510.028 260.5,511.5C 242.5,511.5 224.5,511.5 206.5,511.5C 204.193,510.023 202.36,508.023 201,505.5C 200.822,493.924 200.322,482.424 199.5,471C 179.388,465.798 160.388,457.964 142.5,447.5C 134.651,455.183 126.651,462.683 118.5,470C 114.833,472 111.167,472 107.5,470C 84.6382,447.472 62.1382,424.639 40,401.5C 39.0885,397.548 39.7552,393.881 42,390.5C 49.348,383.319 56.5146,375.986 63.5,368.5C 53.0356,350.612 45.2023,331.612 40,311.5C 28.576,310.678 17.076,310.178 5.5,310C 2.97739,308.64 0.977392,306.807 -0.5,304.5C -0.5,271.833 -0.5,239.167 -0.5,206.5C 0.977392,204.193 2.97739,202.36 5.5,201C 17.076,200.822 28.576,200.322 40,199.5C 45.2023,179.388 53.0356,160.388 63.5,142.5C 56.5146,135.014 49.348,127.681 42,120.5C 39.1435,116.361 38.8102,112.028 41,107.5C 63.1667,85.3333 85.3333,63.1667 107.5,41C 111.167,39 114.833,39 118.5,41C 126.651,48.3168 134.651,55.8168 142.5,63.5C 160.738,53.0468 180.071,45.3801 200.5,40.5C 200.333,28.8286 200.5,17.1619 201,5.5C 202.36,2.97739 204.193,0.977392 206.5,-0.5 Z M 221.5,20.5 C 229.167,20.5 236.833,20.5 244.5,20.5C 244.5,61.1667 244.5,101.833 244.5,142.5C 200.095,148.449 168.595,171.782 150,212.5C 132.693,263.107 143.527,306.607 182.5,343C 200.503,357.83 221.169,366.33 244.5,368.5C 244.833,409.505 244.5,450.505 243.5,491.5C 236.224,490.535 228.891,490.201 221.5,490.5C 221.906,479.436 221.406,468.436 220,457.5C 218.457,455.622 216.624,454.122 214.5,453C 189.535,447.181 166.201,437.515 144.5,424C 141.036,423.183 137.702,423.517 134.5,425C 127.833,431.667 121.167,438.333 114.5,445C 113.833,445.667 113.167,445.667 112.5,445C 96.6526,429.319 80.986,413.486 65.5,397.5C 72.152,390.348 78.9853,383.348 86,376.5C 87.4833,373.298 87.8166,369.964 87,366.5C 73.1536,344.136 63.1536,320.136 57,294.5C 55.238,291.732 52.738,290.232 49.5,290C 39.5056,289.5 29.5056,289.334 19.5,289.5C 19.5,266.833 19.5,244.167 19.5,221.5C 29.8387,221.666 40.172,221.5 50.5,221C 53.455,220.608 55.6217,219.108 57,216.5C 63.1536,190.864 73.1536,166.864 87,144.5C 87.8166,141.036 87.4833,137.702 86,134.5C 78.9853,127.652 72.152,120.652 65.5,113.5C 81.1526,97.3472 96.986,81.3472 113,65.5C 120.197,73.0314 127.697,80.1981 135.5,87C 138.5,87.6667 141.5,87.6667 144.5,87C 166.201,73.4854 189.535,63.8187 214.5,58C 218.205,56.3006 220.372,53.4672 221,49.5C 221.5,39.8391 221.666,30.1724 221.5,20.5 Z M 418.5,20.5 C 431.651,19.483 437.484,25.483 436,38.5C 432.269,45.78 426.435,48.28 418.5,46C 411.22,42.2685 408.72,36.4352 411,28.5C 413.028,25.3078 415.528,22.6411 418.5,20.5 Z M 474.5,101.5 C 486.651,101.485 491.818,107.485 490,119.5C 485.338,128.276 478.504,130.442 469.5,126C 463.923,120.146 463.09,113.646 467,106.5C 469.17,104.177 471.67,102.51 474.5,101.5 Z M 418.5,464.5 C 431.651,463.483 437.484,469.483 436,482.5C 432.269,489.78 426.435,492.28 418.5,490C 411.22,486.269 408.72,480.435 411,472.5C 413.028,469.308 415.528,466.641 418.5,464.5 Z"/></g>
<g><path style="opacity:0.939" fill="#fefffe" d="M 197.5,108.5 C 208.486,107.653 212.986,112.653 211,123.5C 209.833,125.333 208.333,126.833 206.5,128C 149.718,153.172 120.218,197.005 118,259.5C 111.864,267.809 105.531,268.142 99,260.5C 97.7116,209.583 116.212,167.417 154.5,134C 167.641,123.432 181.975,114.932 197.5,108.5 Z"/></g>
<g><path style="opacity:0.943" fill="#fefffe" d="M 244.5,179.5 C 250.29,179.096 255.956,179.596 261.5,181C 267.124,187.368 266.791,193.368 260.5,199C 224.12,200.996 203.786,219.996 199.5,256C 203.333,289.167 221.833,307.667 255,311.5C 291.004,307.214 310.004,286.88 312,250.5C 316.164,245.289 321.33,244.122 327.5,247C 329.049,248.214 330.215,249.714 331,251.5C 331.796,288.693 314.963,314.193 280.5,328C 243.613,338.15 213.78,327.983 191,297.5C 174.052,267.578 175.052,238.245 194,209.5C 207.26,193.391 224.093,183.391 244.5,179.5 Z"/></g>
<g><path style="opacity:0.946" fill="#fefffe" d="M 511.5,247.5 C 511.5,252.833 511.5,258.167 511.5,263.5C 504.288,283.78 489.954,292.28 468.5,289C 457.17,285.329 449.17,277.996 444.5,267C 433.109,266.91 421.776,266.243 410.5,265C 405.29,260.88 404.123,255.714 407,249.5C 408.214,247.951 409.714,246.785 411.5,246C 422.5,245.667 433.5,245.333 444.5,245C 452.076,226.707 465.742,219.041 485.5,222C 498.682,226.017 507.349,234.517 511.5,247.5 Z M 473.5,242.5 C 487.581,242.403 492.748,249.07 489,262.5C 480.274,271.829 472.274,271.162 465,260.5C 462.76,251.983 465.594,245.983 473.5,242.5 Z"/></g>
<g><path style="opacity:0.892" fill="#fefffe" d="M 356.5,244.5 C 367.98,245.979 371.313,251.979 366.5,262.5C 361.722,267.075 356.722,267.409 351.5,263.5C 346.421,258.334 346.255,253 351,247.5C 352.876,246.391 354.709,245.391 356.5,244.5 Z"/></g>
<g><path style="opacity:0.899" fill="#fefffe" d="M 306.5,333.5 C 319.451,332.739 323.617,338.406 319,350.5C 313.667,354.5 308.333,354.5 303,350.5C 299.021,343.694 300.188,338.027 306.5,333.5 Z"/></g>
<g><path style="opacity:0.958" fill="#fefffe" d="M 511.5,387.5 C 511.5,393.167 511.5,398.833 511.5,404.5C 502.917,426.125 487.251,433.958 464.5,428C 450.726,421.786 443.726,411.119 443.5,396C 443.327,390.241 444.161,384.741 446,379.5C 437.5,371 429,362.5 420.5,354C 396.167,353.667 371.833,353.333 347.5,353C 341.136,348.66 339.969,343.16 344,336.5C 344.903,335.299 346.069,334.465 347.5,334C 374.833,333.333 402.167,333.333 429.5,334C 440.637,344.137 451.471,354.637 462,365.5C 485.562,357.201 502.062,364.534 511.5,387.5 Z M 474.5,382.5 C 488.92,383.667 493.42,391 488,404.5C 482.477,409.948 476.31,410.781 469.5,407C 463.923,401.146 463.09,394.646 467,387.5C 469.426,385.548 471.926,383.881 474.5,382.5 Z"/></g>
</svg>
